<?xml version="1.0" encoding="utf-8"?>
<!-- Generator: Adobe Illustrator 25.0.0, SVG Export Plug-In . SVG Version: 6.00 Build 0)  -->
<svg version="1.1" xmlns="http://www.w3.org/2000/svg" xmlns:xlink="http://www.w3.org/1999/xlink" x="0px" y="0px"
	 viewBox="0 0 1146 417" style="enable-background:new 0 0 1146 417;" xml:space="preserve">
<style type="text/css">
	.st0{fill:url(#SVGID_1_);}
	.st1{fill:#FFFFFF;}
	.st2{fill:#919DAF;}
	.st3{fill:#779CAF;}
	.st4{fill:#327744;}
	.st5{fill:#1B5F36;}
	.st6{fill:#1C6238;}
	.st7{fill:#3D3E3D;}
	.st8{opacity:0.56;}
	.st9{fill:#FFFF00;}
</style>
<g id="BACKGROUND">
	<linearGradient id="SVGID_1_" gradientUnits="userSpaceOnUse" x1="574.8027" y1="417.0653" x2="571.0197" y2="-21.7627">
		<stop  offset="0" style="stop-color:#8B7872"/>
		<stop  offset="0.0752" style="stop-color:#6A7D6E"/>
		<stop  offset="0.1634" style="stop-color:#4A836B"/>
		<stop  offset="0.2377" style="stop-color:#378669"/>
		<stop  offset="0.2886" style="stop-color:#308768"/>
		<stop  offset="0.7475" style="stop-color:#0E7D93"/>
		<stop  offset="1" style="stop-color:#0078A5"/>
	</linearGradient>
	<rect class="st0" width="1146" height="415.91"/>
</g>
<g id="OBJECTS">
	<path class="st1" d="M300.64,193.6c0,0-19.29-25.76-38.65-24.42s-24.58,8-24.58,8s14.03-28.67-13.53-44.67s-37.12-0.67-37.12-0.67
		s5.19-37.33-20.88-51.33s-51.33,6-51.33,6s4.54-20.67-13.33-20c-17.88,0.67-22.46,4.67-22.46,4.67s5.96-25.33-13.41-36
		s-36.5-5.33-36.5-5.33S25.13,2.74,0.55,2.07v263.44l238.02-10L300.64,193.6z"/>
	<path class="st1" d="M844.97,193.6c0,0,19.29-25.76,38.65-24.42s24.58,8,24.58,8s-14.03-28.67,13.53-44.67s37.12-0.67,37.12-0.67
		s-5.19-37.33,20.88-51.33s51.33,6,51.33,6s-4.54-20.67,13.33-20c17.88,0.67,22.46,4.67,22.46,4.67s-5.96-25.33,13.41-36
		c19.37-10.67,36.5-5.33,36.5-5.33s3.72-27.1,28.3-27.77v263.44l-238.02-10L844.97,193.6z"/>
	<path class="st2" d="M379.3,202.41c4.97-0.83,105.98-94.39,113.43-91.08c7.45,3.31,23.18,16.56,33.95,14.9
		c10.76-1.66,49.68-79.48,59.61-76.17c9.94,3.31,29.81,5.8,37.26,12.42c7.45,6.62,26.2,52.57,32.83,67.48s94,66,94,66l-176.51,34.6
		c0,0-158.97,4.14-165.59,2.48S379.3,202.41,379.3,202.41z"/>
	<path class="st3" d="M-2.9,178.59c0,0,76.26-39.09,101.71-39.09s63.13,22,80.44,26s36.66-11,53.97-11s40.73,15,75.35,21
		s58.04-26,97.75-24s149.68,52,149.68,52s-283.61,22-367.1,22S-2.9,178.59-2.9,178.59z"/>
	<path class="st3" d="M621.22,156.1c0,0,91.04-70.6,116.5-70.6s63.13,22,80.44,26s36.66-11,53.97-11s40.73,15,75.35,21
		c34.62,6,58.04-26,97.75-24c39.71,2,107.51,116.26,107.51,116.26s-284.68-62.26-368.17-62.26S621.22,156.1,621.22,156.1z"/>
	<g>
		<path class="st4" d="M354.48,319.47H1146V204.4c0,0-339.27-94.03-406.5-84.23s-189.46,84.95-287.24,91.48
			s-188.54,1.78-271.04-15.38S0,184.05,0,184.05v135.42H354.48z"/>
		<g>
			<g>
				<path class="st4" d="M758.52,112.49c-0.94,0.94-3.03-1.58-1.61-2.52c1.41-0.94,0.94-3.31,0.4-2.73
					c-0.54,0.58-3.57-2.09-2.49-2.52c1.08-0.43,1.95-2.81,0.54-2.59c-1.41,0.22-2.83-2.23-2.15-2.37c0.67-0.14,1.28-2.45,1.01-2.52
					c-0.27-0.07-2.02,0.94-2.69-1.37c-0.41-1.4-0.58-1.91-0.66-2.65c-0.03-0.42-0.29-1.12-0.3-1.19c-0.1-0.52-0.44-0.25-0.44-0.25
					l-0.41,1.09c-0.1,0.74-0.29,1.76-0.62,2.9c-0.67,2.3-2.42,1.29-2.69,1.37c-0.27,0.07,0.34,2.37,1.01,2.52
					c0.67,0.14-0.74,2.59-2.15,2.37c-1.41-0.22-0.54,2.16,0.54,2.59c1.08,0.43-1.95,3.09-2.49,2.52c-0.54-0.58-1.01,1.8,0.4,2.73
					c1.41,0.94-0.67,3.45-1.61,2.52c-0.94-0.94-0.07,2.66,2.09,3.96c1.13,0.68,3.13,0.86,4.78,0.89l0,0c0,0,5.32,0.5,7.47-0.79
					C758.59,115.15,759.47,111.56,758.52,112.49z"/>
				<g>
					<polygon class="st4" points="750.92,127.14 749.44,127.14 750.14,97.9 750.65,97.9 					"/>
					<polygon class="st4" points="749.88,111.12 745.45,106.67 745.45,106.67 750.1,110.08 					"/>
					<polygon class="st4" points="750.39,107.69 754.81,103.24 754.81,103.24 750.16,106.65 					"/>
					<polygon class="st4" points="750.13,112.86 755.15,109.2 755.15,109.2 750.06,111.79 					"/>
					<polygon class="st4" points="750.21,115.67 744.99,112.34 744.99,112.34 750.22,114.6 					"/>
					<polygon class="st4" points="750.3,105.02 746.27,102.78 746.27,102.78 750.29,103.98 					"/>
				</g>
			</g>
			<g>
				<path class="st4" d="M776.67,108.22c-0.94,0.94-3.03-1.58-1.61-2.52c1.41-0.94,0.94-3.31,0.4-2.73s-3.57-2.09-2.49-2.52
					c1.08-0.43,1.95-2.81,0.54-2.59c-1.41,0.22-2.83-2.23-2.15-2.37s1.28-2.45,1.01-2.52c-0.27-0.07-2.02,0.94-2.69-1.37
					c-0.41-1.4-0.58-1.91-0.66-2.65c-0.03-0.42-0.29-1.12-0.3-1.19c-0.1-0.52-0.44-0.25-0.44-0.25l-0.41,1.09
					c-0.1,0.74-0.29,1.76-0.62,2.9c-0.67,2.3-2.42,1.29-2.69,1.37c-0.27,0.07,0.34,2.37,1.01,2.52c0.67,0.14-0.74,2.59-2.15,2.37
					c-1.41-0.22-0.54,2.16,0.54,2.59c1.08,0.43-1.95,3.09-2.49,2.52c-0.54-0.58-1.01,1.8,0.4,2.73c1.41,0.94-0.67,3.45-1.61,2.52
					c-0.94-0.94-0.07,2.66,2.09,3.96c1.13,0.68,3.13,0.86,4.78,0.89l0,0c0,0,5.32,0.5,7.47-0.79
					C776.73,110.88,777.61,107.29,776.67,108.22z"/>
				<g>
					<polygon class="st4" points="769.06,122.87 767.58,122.87 768.29,93.63 768.79,93.63 					"/>
					<polygon class="st4" points="768.02,106.85 763.6,102.4 763.6,102.4 768.24,105.81 					"/>
					<polygon class="st4" points="768.53,103.42 772.95,98.97 772.95,98.97 768.3,102.38 					"/>
					<polygon class="st4" points="768.28,108.59 773.3,104.93 773.3,104.93 768.21,107.52 					"/>
					<polygon class="st4" points="768.35,111.4 763.13,108.07 763.13,108.07 768.36,110.33 					"/>
					<polygon class="st4" points="768.44,100.75 764.41,98.51 764.41,98.51 768.43,99.72 					"/>
				</g>
			</g>
			<g>
				<path class="st4" d="M794.62,117.21c-0.94,0.94-3.03-1.58-1.61-2.52c1.41-0.94,0.94-3.31,0.4-2.73
					c-0.54,0.58-3.57-2.09-2.49-2.52c1.08-0.43,1.95-2.81,0.54-2.59c-1.41,0.22-2.83-2.23-2.15-2.37c0.67-0.14,1.28-2.45,1.01-2.52
					c-0.27-0.07-2.02,0.94-2.69-1.37c-0.41-1.4-0.58-1.91-0.66-2.65c-0.03-0.42-0.29-1.12-0.3-1.19c-0.1-0.52-0.44-0.25-0.44-0.25
					l-0.41,1.09c-0.1,0.74-0.29,1.76-0.62,2.9c-0.67,2.3-2.42,1.29-2.69,1.37c-0.27,0.07,0.34,2.37,1.01,2.52
					c0.67,0.14-0.74,2.59-2.15,2.37c-1.41-0.22-0.54,2.16,0.54,2.59c1.08,0.43-1.95,3.09-2.49,2.52s-1.01,1.8,0.4,2.73
					c1.41,0.94-0.67,3.45-1.61,2.52c-0.94-0.94-0.07,2.66,2.09,3.96c1.13,0.68,3.13,0.86,4.78,0.89l0,0c0,0,5.32,0.5,7.47-0.79
					C794.69,119.87,795.56,116.27,794.62,117.21z"/>
				<g>
					<polygon class="st4" points="787.01,131.86 785.53,131.86 786.24,102.62 786.74,102.62 					"/>
					<polygon class="st4" points="785.97,115.84 781.55,111.39 781.55,111.39 786.2,114.8 					"/>
					<polygon class="st4" points="786.48,112.41 790.91,107.96 790.91,107.96 786.26,111.37 					"/>
					<polygon class="st4" points="786.23,117.58 791.25,113.91 791.25,113.91 786.16,116.51 					"/>
					<polygon class="st4" points="786.3,120.38 781.08,117.06 781.08,117.06 786.31,119.31 					"/>
					<polygon class="st4" points="786.39,109.74 782.37,107.49 782.37,107.49 786.38,108.7 					"/>
				</g>
			</g>
			<g>
				<path class="st4" d="M820.54,130.34c-0.94,0.94-3.03-1.58-1.61-2.52c1.41-0.94,0.94-3.31,0.4-2.73
					c-0.54,0.58-3.57-2.09-2.49-2.52c1.08-0.43,1.95-2.81,0.54-2.59c-1.41,0.22-2.83-2.23-2.15-2.37c0.67-0.14,1.28-2.45,1.01-2.52
					c-0.27-0.07-2.02,0.94-2.69-1.37c-0.41-1.4-0.58-1.91-0.66-2.65c-0.03-0.42-0.29-1.12-0.3-1.19c-0.1-0.52-0.44-0.25-0.44-0.25
					l-0.41,1.09c-0.1,0.74-0.29,1.76-0.62,2.9c-0.67,2.3-2.42,1.29-2.69,1.37c-0.27,0.07,0.34,2.37,1.01,2.52s-0.74,2.59-2.15,2.37
					c-1.41-0.22-0.54,2.16,0.54,2.59c1.08,0.43-1.95,3.09-2.49,2.52s-1.01,1.8,0.4,2.73c1.41,0.94-0.67,3.45-1.61,2.52
					s-0.07,2.66,2.09,3.96c1.13,0.68,3.13,0.86,4.78,0.89l0,0c0,0,5.32,0.5,7.47-0.79C820.6,133.01,821.48,129.41,820.54,130.34z"/>
				<g>
					<polygon class="st4" points="812.93,145 811.45,145 812.15,115.75 812.66,115.75 					"/>
					<polygon class="st4" points="811.89,128.97 807.46,124.52 807.46,124.52 812.11,127.93 					"/>
					<polygon class="st4" points="812.4,125.54 816.82,121.09 816.82,121.09 812.17,124.5 					"/>
					<polygon class="st4" points="812.14,130.71 817.16,127.05 817.16,127.05 812.07,129.64 					"/>
					<polygon class="st4" points="812.22,133.52 807,130.19 807,130.19 812.23,132.45 					"/>
					<polygon class="st4" points="812.31,122.87 808.28,120.63 808.28,120.63 812.3,121.84 					"/>
				</g>
			</g>
			<g>
				<path class="st4" d="M677.67,147.45c-0.94,0.94-3.03-1.58-1.61-2.52c1.41-0.94,0.94-3.31,0.4-2.73
					c-0.54,0.58-3.57-2.09-2.49-2.52s1.95-2.81,0.54-2.59s-2.83-2.23-2.15-2.37c0.67-0.14,1.28-2.45,1.01-2.52
					c-0.27-0.07-2.02,0.94-2.69-1.37c-0.41-1.4-0.58-1.91-0.66-2.65c-0.03-0.42-0.29-1.12-0.3-1.19c-0.1-0.52-0.44-0.25-0.44-0.25
					l-0.41,1.09c-0.1,0.74-0.29,1.76-0.62,2.9c-0.67,2.3-2.42,1.29-2.69,1.37c-0.27,0.07,0.34,2.37,1.01,2.52
					c0.67,0.14-0.74,2.59-2.15,2.37c-1.41-0.22-0.54,2.16,0.54,2.59s-1.95,3.09-2.49,2.52c-0.54-0.58-1.01,1.8,0.4,2.73
					s-0.67,3.45-1.61,2.52c-0.94-0.94-0.07,2.66,2.09,3.96c1.13,0.68,3.13,0.86,4.78,0.89l0,0c0,0,5.32,0.5,7.47-0.79
					C677.74,150.11,678.61,146.52,677.67,147.45z"/>
				<g>
					<polygon class="st4" points="670.06,162.1 668.58,162.1 669.29,132.86 669.79,132.86 					"/>
					<polygon class="st4" points="669.03,146.08 664.6,141.63 664.6,141.63 669.25,145.04 					"/>
					<polygon class="st4" points="669.53,142.65 673.96,138.2 673.96,138.2 669.31,141.61 					"/>
					<polygon class="st4" points="669.28,147.82 674.3,144.16 674.3,144.16 669.21,146.75 					"/>
					<polygon class="st4" points="669.36,150.63 664.14,147.3 664.14,147.3 669.36,149.56 					"/>
					<polygon class="st4" points="669.44,139.98 665.42,137.74 665.42,137.74 669.43,138.94 					"/>
				</g>
			</g>
			<g>
				<path class="st4" d="M692.17,140.23c-0.94,0.94-3.03-1.58-1.61-2.52c1.41-0.94,0.94-3.31,0.4-2.73
					c-0.54,0.58-3.57-2.09-2.49-2.52s1.95-2.81,0.54-2.59s-2.83-2.23-2.15-2.37c0.67-0.14,1.28-2.45,1.01-2.52
					c-0.27-0.07-2.02,0.94-2.69-1.37c-0.41-1.4-0.58-1.91-0.66-2.65c-0.03-0.42-0.29-1.12-0.3-1.19c-0.1-0.52-0.44-0.25-0.44-0.25
					l-0.41,1.09c-0.1,0.74-0.29,1.76-0.62,2.9c-0.67,2.3-2.42,1.29-2.69,1.37c-0.27,0.07,0.34,2.37,1.01,2.52
					c0.67,0.14-0.74,2.59-2.15,2.37c-1.41-0.22-0.54,2.16,0.54,2.59c1.08,0.43-1.95,3.09-2.49,2.52s-1.01,1.8,0.4,2.73
					c1.41,0.94-0.67,3.45-1.61,2.52c-0.94-0.94-0.07,2.66,2.09,3.96c1.13,0.68,3.13,0.86,4.78,0.89l0,0c0,0,5.32,0.5,7.47-0.79
					C692.23,142.89,693.11,139.29,692.17,140.23z"/>
				<g>
					<polygon class="st4" points="684.56,154.88 683.08,154.88 683.78,125.64 684.29,125.64 					"/>
					<polygon class="st4" points="683.52,138.86 679.1,134.41 679.1,134.41 683.74,137.82 					"/>
					<polygon class="st4" points="684.03,135.43 688.45,130.98 688.45,130.98 683.8,134.39 					"/>
					<polygon class="st4" points="683.77,140.6 688.8,136.94 688.8,136.94 683.71,139.53 					"/>
					<polygon class="st4" points="683.85,143.4 678.63,140.08 678.63,140.08 683.86,142.33 					"/>
					<polygon class="st4" points="683.94,132.76 679.91,130.51 679.91,130.51 683.93,131.72 					"/>
				</g>
			</g>
			<g>
				<path class="st4" d="M470.14,218.61c-0.94,0.94-3.03-1.58-1.61-2.52c1.41-0.94,0.94-3.31,0.4-2.73
					c-0.54,0.58-3.57-2.09-2.49-2.52c1.08-0.43,1.95-2.81,0.54-2.59s-2.83-2.23-2.15-2.37c0.67-0.14,1.28-2.45,1.01-2.52
					s-2.02,0.94-2.69-1.37c-0.41-1.4-0.58-1.91-0.66-2.65c-0.03-0.42-0.29-1.12-0.3-1.19c-0.1-0.52-0.44-0.25-0.44-0.25l-0.41,1.09
					c-0.1,0.74-0.29,1.76-0.62,2.9c-0.67,2.3-2.42,1.29-2.69,1.37c-0.27,0.07,0.34,2.37,1.01,2.52s-0.74,2.59-2.15,2.37
					s-0.54,2.16,0.54,2.59c1.08,0.43-1.95,3.09-2.49,2.52s-1.01,1.8,0.4,2.73c1.41,0.94-0.67,3.45-1.61,2.52s-0.07,2.66,2.09,3.96
					c1.13,0.68,3.13,0.86,4.78,0.89l0,0c0,0,5.32,0.5,7.47-0.79S471.08,217.68,470.14,218.61z"/>
				<g>
					<polygon class="st4" points="462.53,233.26 461.05,233.26 461.76,204.02 462.26,204.02 					"/>
					<polygon class="st4" points="461.49,217.24 457.07,212.79 457.07,212.79 461.72,216.2 					"/>
					<polygon class="st4" points="462,213.81 466.43,209.36 466.43,209.36 461.78,212.77 					"/>
					<polygon class="st4" points="461.75,218.98 466.77,215.32 466.77,215.32 461.68,217.91 					"/>
					<polygon class="st4" points="461.82,221.79 456.6,218.46 456.6,218.46 461.83,220.72 					"/>
					<polygon class="st4" points="461.91,211.14 457.89,208.9 457.89,208.9 461.9,210.1 					"/>
				</g>
			</g>
			<g>
				<path class="st4" d="M478.86,208.6c-0.94,0.94-3.03-1.58-1.61-2.52c1.41-0.94,0.94-3.31,0.4-2.73
					c-0.54,0.58-3.57-2.09-2.49-2.52c1.08-0.43,1.95-2.81,0.54-2.59s-2.83-2.23-2.15-2.37c0.67-0.14,1.28-2.45,1.01-2.52
					c-0.27-0.07-2.02,0.94-2.69-1.37c-0.41-1.4-0.58-1.91-0.66-2.65c-0.03-0.42-0.29-1.12-0.3-1.19c-0.1-0.52-0.44-0.25-0.44-0.25
					l-0.41,1.09c-0.1,0.74-0.29,1.76-0.62,2.9c-0.67,2.3-2.42,1.29-2.69,1.37c-0.27,0.07,0.34,2.37,1.01,2.52
					c0.67,0.14-0.74,2.59-2.15,2.37s-0.54,2.16,0.54,2.59c1.08,0.43-1.95,3.09-2.49,2.52c-0.54-0.58-1.01,1.8,0.4,2.73
					c1.41,0.94-0.67,3.45-1.61,2.52c-0.94-0.94-0.07,2.66,2.09,3.96c1.13,0.68,3.13,0.86,4.78,0.89l0,0c0,0,5.32,0.5,7.47-0.79
					S479.8,207.67,478.86,208.6z"/>
				<g>
					<polygon class="st4" points="471.25,223.26 469.77,223.26 470.48,194.01 470.98,194.01 					"/>
					<polygon class="st4" points="470.21,207.24 465.79,202.78 465.79,202.78 470.44,206.19 					"/>
					<polygon class="st4" points="470.72,203.8 475.15,199.35 475.15,199.35 470.5,202.76 					"/>
					<polygon class="st4" points="470.47,208.97 475.49,205.31 475.49,205.31 470.4,207.9 					"/>
					<polygon class="st4" points="470.55,211.78 465.33,208.45 465.33,208.45 470.55,210.71 					"/>
					<polygon class="st4" points="470.63,201.13 466.61,198.89 466.61,198.89 470.62,200.1 					"/>
				</g>
			</g>
			<g>
				<path class="st4" d="M584.25,179.1c-0.94,0.94-3.03-1.58-1.61-2.52c1.41-0.94,0.94-3.31,0.4-2.73
					c-0.54,0.58-3.57-2.09-2.49-2.52s1.95-2.81,0.54-2.59c-1.41,0.22-2.83-2.23-2.15-2.37c0.67-0.14,1.28-2.45,1.01-2.52
					c-0.27-0.07-2.02,0.94-2.69-1.37c-0.41-1.4-0.58-1.91-0.66-2.65c-0.03-0.42-0.29-1.12-0.3-1.19c-0.1-0.52-0.44-0.25-0.44-0.25
					l-0.41,1.09c-0.1,0.74-0.29,1.76-0.62,2.9c-0.67,2.3-2.42,1.29-2.69,1.37c-0.27,0.07,0.34,2.37,1.01,2.52
					c0.67,0.14-0.74,2.59-2.15,2.37c-1.41-0.22-0.54,2.16,0.54,2.59s-1.95,3.09-2.49,2.52c-0.54-0.58-1.01,1.8,0.4,2.73
					c1.41,0.94-0.67,3.45-1.61,2.52s-0.07,2.66,2.09,3.96c1.13,0.68,3.13,0.86,4.78,0.89l0,0c0,0,5.32,0.5,7.47-0.79
					C584.31,181.76,585.19,178.16,584.25,179.1z"/>
				<g>
					<polygon class="st4" points="576.64,193.75 575.16,193.75 575.86,164.51 576.37,164.51 					"/>
					<polygon class="st4" points="575.6,177.73 571.17,173.28 571.17,173.28 575.82,176.69 					"/>
					<polygon class="st4" points="576.11,174.3 580.53,169.85 580.53,169.85 575.88,173.26 					"/>
					<polygon class="st4" points="575.85,179.47 580.87,175.81 580.87,175.81 575.78,178.4 					"/>
					<polygon class="st4" points="575.93,182.27 570.71,178.95 570.71,178.95 575.94,181.2 					"/>
					<polygon class="st4" points="576.02,171.63 571.99,169.38 571.99,169.38 576.01,170.59 					"/>
				</g>
			</g>
			<g>
				<path class="st4" d="M570.75,187.25c-0.94,0.94-3.03-1.58-1.61-2.52c1.41-0.94,0.94-3.31,0.4-2.73
					c-0.54,0.58-3.57-2.09-2.49-2.52s1.95-2.81,0.54-2.59s-2.83-2.23-2.15-2.37c0.67-0.14,1.28-2.45,1.01-2.52
					c-0.27-0.07-2.02,0.94-2.69-1.37c-0.41-1.4-0.58-1.91-0.66-2.65c-0.03-0.42-0.29-1.12-0.3-1.19c-0.1-0.52-0.44-0.25-0.44-0.25
					l-0.41,1.09c-0.1,0.74-0.29,1.76-0.62,2.9c-0.67,2.3-2.42,1.29-2.69,1.37c-0.27,0.07,0.34,2.37,1.01,2.52
					c0.67,0.14-0.74,2.59-2.15,2.37c-1.41-0.22-0.54,2.16,0.54,2.59s-1.95,3.09-2.49,2.52c-0.54-0.58-1.01,1.8,0.4,2.73
					c1.41,0.94-0.67,3.45-1.61,2.52s-0.07,2.66,2.09,3.96c1.13,0.68,3.13,0.86,4.78,0.89l0,0c0,0,5.32,0.5,7.47-0.79
					C570.82,189.91,571.7,186.32,570.75,187.25z"/>
				<g>
					<polygon class="st4" points="563.15,201.9 561.67,201.9 562.37,172.66 562.88,172.66 					"/>
					<polygon class="st4" points="562.11,185.88 557.68,181.43 557.68,181.43 562.33,184.84 					"/>
					<polygon class="st4" points="562.62,182.45 567.04,178 567.04,178 562.39,181.41 					"/>
					<polygon class="st4" points="562.36,187.62 567.38,183.96 567.38,183.96 562.29,186.55 					"/>
					<polygon class="st4" points="562.44,190.43 557.22,187.1 557.22,187.1 562.45,189.36 					"/>
					<polygon class="st4" points="562.53,179.78 558.5,177.54 558.5,177.54 562.52,178.74 					"/>
				</g>
			</g>
			<g>
				<path class="st4" d="M484.65,220.24c-0.94,0.94-3.03-1.58-1.61-2.52c1.41-0.94,0.94-3.31,0.4-2.73
					c-0.54,0.58-3.57-2.09-2.49-2.52c1.08-0.43,1.95-2.81,0.54-2.59s-2.83-2.23-2.15-2.37c0.67-0.14,1.28-2.45,1.01-2.52
					s-2.02,0.94-2.69-1.37c-0.41-1.4-0.58-1.91-0.66-2.65c-0.03-0.42-0.29-1.12-0.3-1.19c-0.1-0.52-0.44-0.25-0.44-0.25l-0.41,1.09
					c-0.1,0.74-0.29,1.76-0.62,2.9c-0.67,2.3-2.42,1.29-2.69,1.37c-0.27,0.07,0.34,2.37,1.01,2.52c0.67,0.14-0.74,2.59-2.15,2.37
					s-0.54,2.16,0.54,2.59c1.08,0.43-1.95,3.09-2.49,2.52c-0.54-0.58-1.01,1.8,0.4,2.73c1.41,0.94-0.67,3.45-1.61,2.52
					c-0.94-0.94-0.07,2.66,2.09,3.96c1.13,0.68,3.13,0.86,4.78,0.89l0,0c0,0,5.32,0.5,7.47-0.79S485.6,219.31,484.65,220.24z"/>
				<g>
					<polygon class="st4" points="477.05,234.9 475.57,234.9 476.27,205.65 476.78,205.65 					"/>
					<polygon class="st4" points="476.01,218.88 471.58,214.42 471.58,214.42 476.23,217.83 					"/>
					<polygon class="st4" points="476.52,215.44 480.94,210.99 480.94,210.99 476.29,214.4 					"/>
					<polygon class="st4" points="476.26,220.61 481.28,216.95 481.28,216.95 476.19,219.54 					"/>
					<polygon class="st4" points="476.34,223.42 471.12,220.09 471.12,220.09 476.35,222.35 					"/>
					<polygon class="st4" points="476.43,212.77 472.4,210.53 472.4,210.53 476.42,211.74 					"/>
				</g>
			</g>
			<g>
				<path class="st4" d="M494.01,215.14c-0.94,0.94-3.03-1.58-1.61-2.52c1.41-0.94,0.94-3.31,0.4-2.73
					c-0.54,0.58-3.57-2.09-2.49-2.52c1.08-0.43,1.95-2.81,0.54-2.59s-2.83-2.23-2.15-2.37c0.67-0.14,1.28-2.45,1.01-2.52
					c-0.27-0.07-2.02,0.94-2.69-1.37c-0.41-1.4-0.58-1.91-0.66-2.65c-0.03-0.42-0.29-1.12-0.3-1.19c-0.1-0.52-0.44-0.25-0.44-0.25
					l-0.41,1.09c-0.1,0.74-0.29,1.76-0.62,2.9c-0.67,2.3-2.42,1.29-2.69,1.37c-0.27,0.07,0.34,2.37,1.01,2.52
					c0.67,0.14-0.74,2.59-2.15,2.37c-1.41-0.22-0.54,2.16,0.54,2.59c1.08,0.43-1.95,3.09-2.49,2.52c-0.54-0.58-1.01,1.8,0.4,2.73
					s-0.67,3.45-1.61,2.52c-0.94-0.94-0.07,2.66,2.09,3.96c1.13,0.68,3.13,0.86,4.78,0.89l0,0c0,0,5.32,0.5,7.47-0.79
					S494.95,214.2,494.01,215.14z"/>
				<g>
					<polygon class="st4" points="486.4,229.79 484.92,229.79 485.63,200.55 486.14,200.55 					"/>
					<polygon class="st4" points="485.37,213.77 480.94,209.32 480.94,209.32 485.59,212.73 					"/>
					<polygon class="st4" points="485.87,210.34 490.3,205.89 490.3,205.89 485.65,209.3 					"/>
					<polygon class="st4" points="485.62,215.51 490.64,211.85 490.64,211.85 485.55,214.44 					"/>
					<polygon class="st4" points="485.7,218.31 480.48,214.99 480.48,214.99 485.7,217.24 					"/>
					<polygon class="st4" points="485.78,207.67 481.76,205.42 481.76,205.42 485.77,206.63 					"/>
				</g>
			</g>
			<g>
				<path class="st4" d="M413.28,203.37c-0.94,0.94-3.03-1.58-1.61-2.52s0.94-3.31,0.4-2.73c-0.54,0.58-3.57-2.09-2.49-2.52
					c1.08-0.43,1.95-2.81,0.54-2.59s-2.83-2.23-2.15-2.37c0.67-0.14,1.28-2.45,1.01-2.52s-2.02,0.94-2.69-1.37
					c-0.41-1.4-0.58-1.91-0.66-2.65c-0.03-0.42-0.29-1.12-0.3-1.19c-0.1-0.52-0.44-0.25-0.44-0.25l-0.41,1.09
					c-0.1,0.74-0.29,1.76-0.62,2.9c-0.67,2.3-2.42,1.29-2.69,1.37c-0.27,0.07,0.34,2.37,1.01,2.52c0.67,0.14-0.74,2.59-2.15,2.37
					s-0.54,2.16,0.54,2.59c1.08,0.43-1.95,3.09-2.49,2.52c-0.54-0.58-1.01,1.8,0.4,2.73c1.41,0.94-0.67,3.45-1.61,2.52
					s-0.07,2.66,2.09,3.96c1.13,0.68,3.13,0.86,4.78,0.89l0,0c0,0,5.32,0.5,7.47-0.79S414.22,202.44,413.28,203.37z"/>
				<g>
					<polygon class="st4" points="405.67,218.02 404.19,218.02 404.9,188.78 405.4,188.78 					"/>
					<polygon class="st4" points="404.64,202 400.21,197.55 400.21,197.55 404.86,200.96 					"/>
					<polygon class="st4" points="405.14,198.57 409.57,194.12 409.57,194.12 404.92,197.53 					"/>
					<polygon class="st4" points="404.89,203.74 409.91,200.08 409.91,200.08 404.82,202.67 					"/>
					<polygon class="st4" points="404.97,206.55 399.75,203.22 399.75,203.22 404.97,205.48 					"/>
					<polygon class="st4" points="405.05,195.9 401.03,193.66 401.03,193.66 405.04,194.86 					"/>
				</g>
			</g>
			<g>
				<path class="st4" d="M388.07,205.55c-0.94,0.94-3.03-1.58-1.61-2.52c1.41-0.94,0.94-3.31,0.4-2.73s-3.57-2.09-2.49-2.52
					c1.08-0.43,1.95-2.81,0.54-2.59s-2.83-2.23-2.15-2.37s1.28-2.45,1.01-2.52c-0.27-0.07-2.02,0.94-2.69-1.37
					c-0.41-1.4-0.58-1.91-0.66-2.65c-0.03-0.42-0.29-1.12-0.3-1.19c-0.1-0.52-0.44-0.25-0.44-0.25l-0.41,1.09
					c-0.1,0.74-0.29,1.76-0.62,2.9c-0.67,2.3-2.42,1.29-2.69,1.37c-0.27,0.07,0.34,2.37,1.01,2.52c0.67,0.14-0.74,2.59-2.15,2.37
					s-0.54,2.16,0.54,2.59c1.08,0.43-1.95,3.09-2.49,2.52c-0.54-0.58-1.01,1.8,0.4,2.73s-0.67,3.45-1.61,2.52
					c-0.94-0.94-0.07,2.66,2.09,3.96c1.13,0.68,3.13,0.86,4.78,0.89l0,0c0,0,5.32,0.5,7.47-0.79S389.01,204.62,388.07,205.55z"/>
				<g>
					<polygon class="st4" points="380.46,220.2 378.98,220.2 379.69,190.96 380.19,190.96 					"/>
					<polygon class="st4" points="379.43,204.18 375,199.73 375,199.73 379.65,203.14 					"/>
					<polygon class="st4" points="379.93,200.75 384.36,196.3 384.36,196.3 379.71,199.71 					"/>
					<polygon class="st4" points="379.68,205.92 384.7,202.26 384.7,202.26 379.61,204.85 					"/>
					<polygon class="st4" points="379.76,208.73 374.54,205.4 374.54,205.4 379.76,207.66 					"/>
					<polygon class="st4" points="379.84,198.08 375.82,195.84 375.82,195.84 379.83,197.04 					"/>
				</g>
			</g>
			<g>
				<path class="st4" d="M354.08,218.62c-0.94,0.94-3.03-1.58-1.61-2.52s0.94-3.31,0.4-2.73c-0.54,0.58-3.57-2.09-2.49-2.52
					c1.08-0.43,1.95-2.81,0.54-2.59c-1.41,0.22-2.83-2.23-2.15-2.37c0.67-0.14,1.28-2.45,1.01-2.52c-0.27-0.07-2.02,0.94-2.69-1.37
					c-0.41-1.4-0.58-1.91-0.66-2.65c-0.03-0.42-0.29-1.12-0.3-1.19c-0.1-0.52-0.44-0.25-0.44-0.25l-0.41,1.09
					c-0.1,0.74-0.29,1.76-0.62,2.9c-0.67,2.3-2.42,1.29-2.69,1.37s0.34,2.37,1.01,2.52c0.67,0.14-0.74,2.59-2.15,2.37
					s-0.54,2.16,0.54,2.59c1.08,0.43-1.95,3.09-2.49,2.52c-0.54-0.58-1.01,1.8,0.4,2.73c1.41,0.94-0.67,3.45-1.61,2.52
					c-0.94-0.94-0.07,2.66,2.09,3.96c1.13,0.68,3.13,0.86,4.78,0.89l0,0c0,0,5.32,0.5,7.47-0.79
					C354.14,221.28,355.02,217.68,354.08,218.62z"/>
				<g>
					<polygon class="st4" points="346.47,233.27 344.99,233.27 345.69,204.03 346.2,204.03 					"/>
					<polygon class="st4" points="345.43,217.25 341.01,212.8 341.01,212.8 345.65,216.21 					"/>
					<polygon class="st4" points="345.94,213.82 350.36,209.37 350.36,209.37 345.71,212.78 					"/>
					<polygon class="st4" points="345.69,218.99 350.71,215.33 350.71,215.33 345.62,217.92 					"/>
					<polygon class="st4" points="345.76,221.8 340.54,218.47 340.54,218.47 345.77,220.72 					"/>
					<polygon class="st4" points="345.85,211.15 341.82,208.91 341.82,208.91 345.84,210.11 					"/>
				</g>
			</g>
			<g>
				<path class="st4" d="M342.62,212.49c-0.94,0.94-3.03-1.58-1.61-2.52s0.94-3.31,0.4-2.73c-0.54,0.58-3.57-2.09-2.49-2.52
					c1.08-0.43,1.95-2.81,0.54-2.59c-1.41,0.22-2.83-2.23-2.15-2.37c0.67-0.14,1.28-2.45,1.01-2.52s-2.02,0.94-2.69-1.37
					c-0.41-1.4-0.58-1.91-0.66-2.65c-0.03-0.42-0.29-1.12-0.3-1.19c-0.1-0.52-0.44-0.25-0.44-0.25l-0.41,1.09
					c-0.1,0.74-0.29,1.76-0.62,2.9c-0.67,2.3-2.42,1.29-2.69,1.37c-0.27,0.07,0.34,2.37,1.01,2.52c0.67,0.14-0.74,2.59-2.15,2.37
					s-0.54,2.16,0.54,2.59c1.08,0.43-1.95,3.09-2.49,2.52s-1.01,1.8,0.4,2.73c1.41,0.94-0.67,3.45-1.61,2.52s-0.07,2.66,2.09,3.96
					c1.13,0.68,3.13,0.86,4.78,0.89l0,0c0,0,5.32,0.5,7.47-0.79S343.56,211.56,342.62,212.49z"/>
				<g>
					<polygon class="st4" points="335.01,227.15 333.53,227.15 334.24,197.9 334.74,197.9 					"/>
					<polygon class="st4" points="333.97,211.13 329.55,206.67 329.55,206.67 334.2,210.08 					"/>
					<polygon class="st4" points="334.48,207.69 338.9,203.24 338.9,203.24 334.26,206.65 					"/>
					<polygon class="st4" points="334.23,212.86 339.25,209.2 339.25,209.2 334.16,211.79 					"/>
					<polygon class="st4" points="334.3,215.67 329.08,212.34 329.08,212.34 334.31,214.6 					"/>
					<polygon class="st4" points="334.39,205.02 330.36,202.78 330.36,202.78 334.38,203.99 					"/>
				</g>
			</g>
			<g>
				<path class="st4" d="M328.87,219.85c-0.94,0.94-3.03-1.58-1.61-2.52c1.41-0.94,0.94-3.31,0.4-2.73
					c-0.54,0.58-3.57-2.09-2.49-2.52c1.08-0.43,1.95-2.81,0.54-2.59c-1.41,0.22-2.83-2.23-2.15-2.37c0.67-0.14,1.28-2.45,1.01-2.52
					s-2.02,0.94-2.69-1.37c-0.41-1.4-0.58-1.91-0.66-2.65c-0.03-0.42-0.29-1.12-0.3-1.19c-0.1-0.52-0.44-0.25-0.44-0.25l-0.41,1.09
					c-0.1,0.74-0.29,1.76-0.62,2.9c-0.67,2.3-2.42,1.29-2.69,1.37c-0.27,0.07,0.34,2.37,1.01,2.52s-0.74,2.59-2.15,2.37
					s-0.54,2.16,0.54,2.59c1.08,0.43-1.95,3.09-2.49,2.52s-1.01,1.8,0.4,2.73c1.41,0.94-0.67,3.45-1.61,2.52s-0.07,2.66,2.09,3.96
					c1.13,0.68,3.13,0.86,4.78,0.89l0,0c0,0,5.32,0.5,7.47-0.79S329.81,218.91,328.87,219.85z"/>
				<g>
					<polygon class="st4" points="321.26,234.5 319.78,234.5 320.48,205.25 320.99,205.25 					"/>
					<polygon class="st4" points="320.22,218.48 315.8,214.02 315.8,214.02 320.44,217.43 					"/>
					<polygon class="st4" points="320.73,215.05 325.15,210.59 325.15,210.59 320.5,214 					"/>
					<polygon class="st4" points="320.48,220.21 325.5,216.55 325.5,216.55 320.41,219.14 					"/>
					<polygon class="st4" points="320.55,223.02 315.33,219.69 315.33,219.69 320.56,221.95 					"/>
					<polygon class="st4" points="320.64,212.37 316.61,210.13 316.61,210.13 320.63,211.34 					"/>
				</g>
			</g>
			<g>
				<path class="st4" d="M293.34,207.18c-0.94,0.94-3.03-1.58-1.61-2.52c1.41-0.94,0.94-3.31,0.4-2.73
					c-0.54,0.58-3.57-2.09-2.49-2.52c1.08-0.43,1.95-2.81,0.54-2.59c-1.41,0.22-2.83-2.23-2.15-2.37c0.67-0.14,1.28-2.45,1.01-2.52
					c-0.27-0.07-2.02,0.94-2.69-1.37c-0.41-1.4-0.58-1.91-0.66-2.65c-0.03-0.42-0.29-1.12-0.3-1.19c-0.1-0.52-0.44-0.25-0.44-0.25
					l-0.41,1.09c-0.1,0.74-0.29,1.76-0.62,2.9c-0.67,2.3-2.42,1.29-2.69,1.37c-0.27,0.07,0.34,2.37,1.01,2.52
					c0.67,0.14-0.74,2.59-2.15,2.37s-0.54,2.16,0.54,2.59c1.08,0.43-1.95,3.09-2.49,2.52c-0.54-0.58-1.01,1.8,0.4,2.73
					c1.41,0.94-0.67,3.45-1.61,2.52c-0.94-0.94-0.07,2.66,2.09,3.96c1.13,0.68,3.13,0.86,4.78,0.89l0,0c0,0,5.32,0.5,7.47-0.79
					S294.29,206.25,293.34,207.18z"/>
				<g>
					<polygon class="st4" points="285.74,221.84 284.26,221.84 284.96,192.59 285.47,192.59 					"/>
					<polygon class="st4" points="284.7,205.82 280.27,201.36 280.27,201.36 284.92,204.77 					"/>
					<polygon class="st4" points="285.21,202.39 289.63,197.93 289.63,197.93 284.98,201.34 					"/>
					<polygon class="st4" points="284.95,207.55 289.97,203.89 289.97,203.89 284.88,206.48 					"/>
					<polygon class="st4" points="285.03,210.36 279.81,207.03 279.81,207.03 285.04,209.29 					"/>
					<polygon class="st4" points="285.12,199.71 281.09,197.47 281.09,197.47 285.11,198.68 					"/>
				</g>
			</g>
			<g>
				<path class="st4" d="M267.75,207.18c-0.94,0.94-3.03-1.58-1.61-2.52c1.41-0.94,0.94-3.31,0.4-2.73s-3.57-2.09-2.49-2.52
					c1.08-0.43,1.95-2.81,0.54-2.59s-2.83-2.23-2.15-2.37s1.28-2.45,1.01-2.52c-0.27-0.07-2.02,0.94-2.69-1.37
					c-0.41-1.4-0.58-1.91-0.66-2.65c-0.03-0.42-0.29-1.12-0.3-1.19c-0.1-0.52-0.44-0.25-0.44-0.25l-0.41,1.09
					c-0.1,0.74-0.29,1.76-0.62,2.9c-0.67,2.3-2.42,1.29-2.69,1.37c-0.27,0.07,0.34,2.37,1.01,2.52c0.67,0.14-0.74,2.59-2.15,2.37
					c-1.41-0.22-0.54,2.16,0.54,2.59s-1.95,3.09-2.49,2.52c-0.54-0.58-1.01,1.8,0.4,2.73c1.41,0.94-0.67,3.45-1.61,2.52
					c-0.94-0.94-0.07,2.66,2.09,3.96c1.13,0.68,3.13,0.86,4.78,0.89l0,0c0,0,5.32,0.5,7.47-0.79S268.69,206.25,267.75,207.18z"/>
				<g>
					<polygon class="st4" points="260.14,221.84 258.66,221.84 259.37,192.59 259.87,192.59 					"/>
					<polygon class="st4" points="259.11,205.82 254.68,201.36 254.68,201.36 259.33,204.77 					"/>
					<polygon class="st4" points="259.61,202.39 264.04,197.93 264.04,197.93 259.39,201.34 					"/>
					<polygon class="st4" points="259.36,207.55 264.38,203.89 264.38,203.89 259.29,206.48 					"/>
					<polygon class="st4" points="259.44,210.36 254.22,207.03 254.22,207.03 259.44,209.29 					"/>
					<polygon class="st4" points="259.52,199.71 255.5,197.47 255.5,197.47 259.51,198.68 					"/>
				</g>
			</g>
			<g>
				<path class="st4" d="M17.34,187.38c-0.94,0.94-3.03-1.58-1.61-2.52c1.41-0.94,0.94-3.31,0.4-2.73
					c-0.54,0.58-3.57-2.09-2.49-2.52s1.95-2.81,0.54-2.59s-2.83-2.23-2.15-2.37c0.67-0.14,1.28-2.45,1.01-2.52
					c-0.27-0.07-2.02,0.94-2.69-1.37c-0.41-1.4-0.58-1.91-0.66-2.65c-0.03-0.42-0.29-1.12-0.3-1.19c-0.1-0.52-0.44-0.25-0.44-0.25
					l-0.41,1.09c-0.1,0.74-0.29,1.76-0.62,2.9c-0.67,2.3-2.42,1.29-2.69,1.37c-0.27,0.07,0.34,2.37,1.01,2.52s-0.74,2.59-2.15,2.37
					s-0.54,2.16,0.54,2.59c1.08,0.43-1.95,3.09-2.49,2.52c-0.54-0.58-1.01,1.8,0.4,2.73c1.41,0.94-0.67,3.45-1.61,2.52
					c-0.94-0.94-0.07,2.66,2.09,3.96c1.13,0.68,3.13,0.86,4.78,0.89l0,0c0,0,5.32,0.5,7.47-0.79S18.29,186.45,17.34,187.38z"/>
				<g>
					<polygon class="st4" points="9.74,202.03 8.26,202.03 8.96,172.79 9.47,172.79 					"/>
					<polygon class="st4" points="8.7,186.01 4.27,181.56 4.27,181.56 8.92,184.97 					"/>
					<polygon class="st4" points="9.21,182.58 13.63,178.13 13.63,178.13 8.98,181.54 					"/>
					<polygon class="st4" points="8.95,187.75 13.97,184.09 13.97,184.09 8.88,186.68 					"/>
					<polygon class="st4" points="9.03,190.56 3.81,187.23 3.81,187.23 9.04,189.49 					"/>
					<polygon class="st4" points="9.12,179.91 5.09,177.67 5.09,177.67 9.11,178.87 					"/>
				</g>
			</g>
			<g>
				<path class="st4" d="M29.06,181.94c-0.94,0.94-3.03-1.58-1.61-2.52c1.41-0.94,0.94-3.31,0.4-2.73
					c-0.54,0.58-3.57-2.09-2.49-2.52c1.08-0.43,1.95-2.81,0.54-2.59c-1.41,0.22-2.83-2.23-2.15-2.37c0.67-0.14,1.28-2.45,1.01-2.52
					c-0.27-0.07-2.02,0.94-2.69-1.37c-0.41-1.4-0.58-1.91-0.66-2.65c-0.03-0.42-0.29-1.12-0.3-1.19c-0.1-0.52-0.44-0.25-0.44-0.25
					l-0.41,1.09c-0.1,0.74-0.29,1.76-0.62,2.9c-0.67,2.3-2.42,1.29-2.69,1.37s0.34,2.37,1.01,2.52c0.67,0.14-0.74,2.59-2.15,2.37
					s-0.54,2.16,0.54,2.59s-1.95,3.09-2.49,2.52c-0.54-0.58-1.01,1.8,0.4,2.73c1.41,0.94-0.67,3.45-1.61,2.52s-0.07,2.66,2.09,3.96
					c1.13,0.68,3.13,0.86,4.78,0.89l0,0c0,0,5.32,0.5,7.47-0.79C29.12,184.6,30,181,29.06,181.94z"/>
				<g>
					<polygon class="st4" points="21.45,196.59 19.97,196.59 20.68,167.34 21.18,167.34 					"/>
					<polygon class="st4" points="20.41,180.57 15.99,176.11 15.99,176.11 20.64,179.52 					"/>
					<polygon class="st4" points="20.92,177.14 25.34,172.68 25.34,172.68 20.7,176.09 					"/>
					<polygon class="st4" points="20.67,182.3 25.69,178.64 25.69,178.64 20.6,181.23 					"/>
					<polygon class="st4" points="20.74,185.11 15.52,181.79 15.52,181.79 20.75,184.04 					"/>
					<polygon class="st4" points="20.83,174.47 16.8,172.22 16.8,172.22 20.82,173.43 					"/>
				</g>
			</g>
			<g>
				<path class="st4" d="M36.99,190.09c-0.94,0.94-3.03-1.58-1.61-2.52c1.41-0.94,0.94-3.31,0.4-2.73s-3.57-2.09-2.49-2.52
					s1.95-2.81,0.54-2.59s-2.83-2.23-2.15-2.37c0.67-0.14,1.28-2.45,1.01-2.52c-0.27-0.07-2.02,0.94-2.69-1.37
					c-0.41-1.4-0.58-1.91-0.66-2.65c-0.03-0.42-0.29-1.12-0.3-1.19c-0.1-0.52-0.44-0.25-0.44-0.25l-0.41,1.09
					c-0.1,0.74-0.29,1.76-0.62,2.9c-0.67,2.3-2.42,1.29-2.69,1.37c-0.27,0.07,0.34,2.37,1.01,2.52c0.67,0.14-0.74,2.59-2.15,2.37
					c-1.41-0.22-0.54,2.16,0.54,2.59c1.08,0.43-1.95,3.09-2.49,2.52c-0.54-0.58-1.01,1.8,0.4,2.73c1.41,0.94-0.67,3.45-1.61,2.52
					c-0.94-0.94-0.07,2.66,2.09,3.96c1.13,0.68,3.13,0.86,4.78,0.89l0,0c0,0,5.32,0.5,7.47-0.79S37.93,189.15,36.99,190.09z"/>
				<g>
					<polygon class="st4" points="29.38,204.74 27.9,204.74 28.6,175.5 29.11,175.5 					"/>
					<polygon class="st4" points="28.34,188.72 23.92,184.27 23.92,184.27 28.56,187.68 					"/>
					<polygon class="st4" points="28.85,185.29 33.27,180.84 33.27,180.84 28.62,184.25 					"/>
					<polygon class="st4" points="28.6,190.46 33.62,186.8 33.62,186.8 28.53,189.39 					"/>
					<polygon class="st4" points="28.67,193.26 23.45,189.94 23.45,189.94 28.68,192.19 					"/>
					<polygon class="st4" points="28.76,182.62 24.73,180.38 24.73,180.38 28.75,181.58 					"/>
				</g>
			</g>
			<g>
				<path class="st4" d="M46.15,183.15c-0.94,0.94-3.03-1.58-1.61-2.52c1.41-0.94,0.94-3.31,0.4-2.73
					c-0.54,0.58-3.57-2.09-2.49-2.52s1.95-2.81,0.54-2.59s-2.83-2.23-2.15-2.37c0.67-0.14,1.28-2.45,1.01-2.52
					c-0.27-0.07-2.02,0.94-2.69-1.37c-0.41-1.4-0.58-1.91-0.66-2.65c-0.03-0.42-0.29-1.12-0.3-1.19c-0.1-0.52-0.44-0.25-0.44-0.25
					l-0.41,1.09c-0.1,0.74-0.29,1.76-0.62,2.9c-0.67,2.3-2.42,1.29-2.69,1.37s0.34,2.37,1.01,2.52c0.67,0.14-0.74,2.59-2.15,2.37
					c-1.41-0.22-0.54,2.16,0.54,2.59s-1.95,3.09-2.49,2.52c-0.54-0.58-1.01,1.8,0.4,2.73s-0.67,3.45-1.61,2.52s-0.07,2.66,2.09,3.96
					c1.13,0.68,3.13,0.86,4.78,0.89l0,0c0,0,5.32,0.5,7.47-0.79C46.22,185.81,47.1,182.21,46.15,183.15z"/>
				<g>
					<polygon class="st4" points="38.55,197.8 37.07,197.8 37.77,168.55 38.28,168.55 					"/>
					<polygon class="st4" points="37.51,181.78 33.08,177.32 33.08,177.32 37.73,180.73 					"/>
					<polygon class="st4" points="38.02,178.35 42.44,173.89 42.44,173.89 37.79,177.3 					"/>
					<polygon class="st4" points="37.76,183.51 42.78,179.85 42.78,179.85 37.69,182.45 					"/>
					<polygon class="st4" points="37.84,186.32 32.62,183 32.62,183 37.85,185.25 					"/>
					<polygon class="st4" points="37.93,175.68 33.9,173.43 33.9,173.43 37.92,174.64 					"/>
				</g>
			</g>
			<g>
				<path class="st4" d="M53.79,191.31c-0.94,0.94-3.03-1.58-1.61-2.52s0.94-3.31,0.4-2.73c-0.54,0.58-3.57-2.09-2.49-2.52
					s1.95-2.81,0.54-2.59c-1.41,0.22-2.83-2.23-2.15-2.37c0.67-0.14,1.28-2.45,1.01-2.52s-2.02,0.94-2.69-1.37
					c-0.41-1.4-0.58-1.91-0.66-2.65c-0.03-0.42-0.29-1.12-0.3-1.19c-0.1-0.52-0.44-0.25-0.44-0.25l-0.41,1.09
					c-0.1,0.74-0.29,1.76-0.62,2.9c-0.67,2.3-2.42,1.29-2.69,1.37s0.34,2.37,1.01,2.52c0.67,0.14-0.74,2.59-2.15,2.37
					c-1.41-0.22-0.54,2.16,0.54,2.59s-1.95,3.09-2.49,2.52c-0.54-0.58-1.01,1.8,0.4,2.73c1.41,0.94-0.67,3.45-1.61,2.52
					c-0.94-0.94-0.07,2.66,2.09,3.96c1.13,0.68,3.13,0.86,4.78,0.89l0,0c0,0,5.32,0.5,7.47-0.79
					C53.86,193.98,54.73,190.38,53.79,191.31z"/>
				<g>
					<polygon class="st4" points="46.19,205.97 44.7,205.97 45.41,176.72 45.92,176.72 					"/>
					<polygon class="st4" points="45.15,189.95 40.72,185.49 40.72,185.49 45.37,188.9 					"/>
					<polygon class="st4" points="45.65,186.51 50.08,182.06 50.08,182.06 45.43,185.47 					"/>
					<polygon class="st4" points="45.4,191.68 50.42,188.02 50.42,188.02 45.33,190.61 					"/>
					<polygon class="st4" points="45.48,194.49 40.26,191.16 40.26,191.16 45.49,193.42 					"/>
					<polygon class="st4" points="45.56,183.84 41.54,181.6 41.54,181.6 45.56,182.81 					"/>
				</g>
			</g>
			<g>
				<path class="st4" d="M222.3,209.63c-0.94,0.94-3.03-1.58-1.61-2.52c1.41-0.94,0.94-3.31,0.4-2.73
					c-0.54,0.58-3.57-2.09-2.49-2.52s1.95-2.81,0.54-2.59s-2.83-2.23-2.15-2.37s1.28-2.45,1.01-2.52c-0.27-0.07-2.02,0.94-2.69-1.37
					c-0.41-1.4-0.58-1.91-0.66-2.65c-0.03-0.42-0.29-1.12-0.3-1.19c-0.1-0.52-0.44-0.25-0.44-0.25l-0.41,1.09
					c-0.1,0.74-0.29,1.76-0.62,2.9c-0.67,2.3-2.42,1.29-2.69,1.37c-0.27,0.07,0.34,2.37,1.01,2.52c0.67,0.14-0.74,2.59-2.15,2.37
					c-1.41-0.22-0.54,2.16,0.54,2.59s-1.95,3.09-2.49,2.52c-0.54-0.58-1.01,1.8,0.4,2.73s-0.67,3.45-1.61,2.52
					c-0.94-0.94-0.07,2.66,2.09,3.96c1.13,0.68,3.13,0.86,4.78,0.89l0,0c0,0,5.32,0.5,7.47-0.79S223.24,208.7,222.3,209.63z"/>
				<g>
					<polygon class="st4" points="214.69,224.29 213.21,224.29 213.92,195.04 214.42,195.04 					"/>
					<polygon class="st4" points="213.65,208.27 209.23,203.81 209.23,203.81 213.88,207.22 					"/>
					<polygon class="st4" points="214.16,204.84 218.58,200.38 218.58,200.38 213.94,203.79 					"/>
					<polygon class="st4" points="213.91,210 218.93,206.34 218.93,206.34 213.84,208.93 					"/>
					<polygon class="st4" points="213.98,212.81 208.76,209.48 208.76,209.48 213.99,211.74 					"/>
					<polygon class="st4" points="214.07,202.16 210.04,199.92 210.04,199.92 214.06,201.13 					"/>
				</g>
			</g>
			<g>
				<path class="st4" d="M229.17,212.9c-0.94,0.94-3.03-1.58-1.61-2.52c1.41-0.94,0.94-3.31,0.4-2.73
					c-0.54,0.58-3.57-2.09-2.49-2.52c1.08-0.43,1.95-2.81,0.54-2.59s-2.83-2.23-2.15-2.37s1.28-2.45,1.01-2.52
					c-0.27-0.07-2.02,0.94-2.69-1.37c-0.41-1.4-0.58-1.91-0.66-2.65c-0.03-0.42-0.29-1.12-0.3-1.19c-0.1-0.52-0.44-0.25-0.44-0.25
					l-0.41,1.09c-0.1,0.74-0.29,1.76-0.62,2.9c-0.67,2.3-2.42,1.29-2.69,1.37c-0.27,0.07,0.34,2.37,1.01,2.52
					c0.67,0.14-0.74,2.59-2.15,2.37s-0.54,2.16,0.54,2.59s-1.95,3.09-2.49,2.52c-0.54-0.58-1.01,1.8,0.4,2.73s-0.67,3.45-1.61,2.52
					c-0.94-0.94-0.07,2.66,2.09,3.96c1.13,0.68,3.13,0.86,4.78,0.89l0,0c0,0,5.32,0.5,7.47-0.79S230.11,211.97,229.17,212.9z"/>
				<g>
					<polygon class="st4" points="221.57,227.55 220.08,227.55 220.79,198.31 221.3,198.31 					"/>
					<polygon class="st4" points="220.53,211.53 216.1,207.08 216.1,207.08 220.75,210.49 					"/>
					<polygon class="st4" points="221.03,208.1 225.46,203.65 225.46,203.65 220.81,207.06 					"/>
					<polygon class="st4" points="220.78,213.27 225.8,209.61 225.8,209.61 220.71,212.2 					"/>
					<polygon class="st4" points="220.86,216.08 215.64,212.75 215.64,212.75 220.87,215.01 					"/>
					<polygon class="st4" points="220.94,205.43 216.92,203.19 216.92,203.19 220.94,204.39 					"/>
				</g>
			</g>
			<g>
				<path class="st4" d="M303.27,219.03c-0.94,0.94-3.03-1.58-1.61-2.52c1.41-0.94,0.94-3.31,0.4-2.73
					c-0.54,0.58-3.57-2.09-2.49-2.52c1.08-0.43,1.95-2.81,0.54-2.59s-2.83-2.23-2.15-2.37c0.67-0.14,1.28-2.45,1.01-2.52
					s-2.02,0.94-2.69-1.37c-0.41-1.4-0.58-1.91-0.66-2.65c-0.03-0.42-0.29-1.12-0.3-1.19c-0.1-0.52-0.44-0.25-0.44-0.25l-0.41,1.09
					c-0.1,0.74-0.29,1.76-0.62,2.9c-0.67,2.3-2.42,1.29-2.69,1.37c-0.27,0.07,0.34,2.37,1.01,2.52s-0.74,2.59-2.15,2.37
					s-0.54,2.16,0.54,2.59c1.08,0.43-1.95,3.09-2.49,2.52s-1.01,1.8,0.4,2.73c1.41,0.94-0.67,3.45-1.61,2.52s-0.07,2.66,2.09,3.96
					c1.13,0.68,3.13,0.86,4.78,0.89l0,0c0,0,5.32,0.5,7.47-0.79S304.22,218.09,303.27,219.03z"/>
				<g>
					<polygon class="st4" points="295.67,233.68 294.19,233.68 294.89,204.44 295.4,204.44 					"/>
					<polygon class="st4" points="294.63,217.66 290.2,213.21 290.2,213.21 294.85,216.62 					"/>
					<polygon class="st4" points="295.14,214.23 299.56,209.78 299.56,209.78 294.91,213.19 					"/>
					<polygon class="st4" points="294.88,219.4 299.9,215.74 299.9,215.74 294.81,218.33 					"/>
					<polygon class="st4" points="294.96,222.2 289.74,218.88 289.74,218.88 294.97,221.13 					"/>
					<polygon class="st4" points="295.05,211.56 291.02,209.31 291.02,209.31 295.04,210.52 					"/>
				</g>
			</g>
			<g>
				<path class="st4" d="M314.35,220.66c-0.94,0.94-3.03-1.58-1.61-2.52c1.41-0.94,0.94-3.31,0.4-2.73
					c-0.54,0.58-3.57-2.09-2.49-2.52c1.08-0.43,1.95-2.81,0.54-2.59s-2.83-2.23-2.15-2.37c0.67-0.14,1.28-2.45,1.01-2.52
					s-2.02,0.94-2.69-1.37c-0.41-1.4-0.58-1.91-0.66-2.65c-0.03-0.42-0.29-1.12-0.3-1.19c-0.1-0.52-0.44-0.25-0.44-0.25l-0.41,1.09
					c-0.1,0.74-0.29,1.76-0.62,2.9c-0.67,2.3-2.42,1.29-2.69,1.37c-0.27,0.07,0.34,2.37,1.01,2.52c0.67,0.14-0.74,2.59-2.15,2.37
					s-0.54,2.16,0.54,2.59c1.08,0.43-1.95,3.09-2.49,2.52c-0.54-0.58-1.01,1.8,0.4,2.73c1.41,0.94-0.67,3.45-1.61,2.52
					s-0.07,2.66,2.09,3.96c1.13,0.68,3.13,0.86,4.78,0.89l0,0c0,0,5.32,0.5,7.47-0.79S315.29,219.73,314.35,220.66z"/>
				<g>
					<polygon class="st4" points="306.74,235.31 305.26,235.31 305.97,206.07 306.47,206.07 					"/>
					<polygon class="st4" points="305.71,219.29 301.28,214.84 301.28,214.84 305.93,218.25 					"/>
					<polygon class="st4" points="306.21,215.86 310.64,211.41 310.64,211.41 305.99,214.82 					"/>
					<polygon class="st4" points="305.96,221.03 310.98,217.37 310.98,217.37 305.89,219.96 					"/>
					<polygon class="st4" points="306.04,223.84 300.82,220.51 300.82,220.51 306.04,222.77 					"/>
					<polygon class="st4" points="306.12,213.19 302.1,210.95 302.1,210.95 306.11,212.15 					"/>
				</g>
			</g>
			<g>
				<path class="st4" d="M322.76,222.3c-0.94,0.94-3.03-1.58-1.61-2.52c1.41-0.94,0.94-3.31,0.4-2.73
					c-0.54,0.58-3.57-2.09-2.49-2.52c1.08-0.43,1.95-2.81,0.54-2.59s-2.83-2.23-2.15-2.37c0.67-0.14,1.28-2.45,1.01-2.52
					s-2.02,0.94-2.69-1.37c-0.41-1.4-0.58-1.91-0.66-2.65c-0.03-0.42-0.29-1.12-0.3-1.19c-0.1-0.52-0.44-0.25-0.44-0.25l-0.41,1.09
					c-0.1,0.74-0.29,1.76-0.62,2.9c-0.67,2.3-2.42,1.29-2.69,1.37c-0.27,0.07,0.34,2.37,1.01,2.52s-0.74,2.59-2.15,2.37
					s-0.54,2.16,0.54,2.59c1.08,0.43-1.95,3.09-2.49,2.52s-1.01,1.8,0.4,2.73c1.41,0.94-0.67,3.45-1.61,2.52
					c-0.94-0.94-0.07,2.66,2.09,3.96c1.13,0.68,3.13,0.86,4.78,0.89l0,0c0,0,5.32,0.5,7.47-0.79S323.7,221.36,322.76,222.3z"/>
				<g>
					<polygon class="st4" points="315.15,236.95 313.67,236.95 314.37,207.7 314.88,207.7 					"/>
					<polygon class="st4" points="314.11,220.93 309.68,216.47 309.68,216.47 314.33,219.88 					"/>
					<polygon class="st4" points="314.62,217.5 319.04,213.04 319.04,213.04 314.39,216.45 					"/>
					<polygon class="st4" points="314.36,222.66 319.38,219 319.38,219 314.29,221.6 					"/>
					<polygon class="st4" points="314.44,225.47 309.22,222.15 309.22,222.15 314.45,224.4 					"/>
					<polygon class="st4" points="314.53,214.83 310.5,212.58 310.5,212.58 314.52,213.79 					"/>
				</g>
			</g>
			<g>
				<path class="st4" d="M644.06,168.69c-0.94,0.94-3.03-1.58-1.61-2.52c1.41-0.94,0.94-3.31,0.4-2.73
					c-0.54,0.58-3.57-2.09-2.49-2.52c1.08-0.43,1.95-2.81,0.54-2.59c-1.41,0.22-2.83-2.23-2.15-2.37c0.67-0.14,1.28-2.45,1.01-2.52
					c-0.27-0.07-2.02,0.94-2.69-1.37c-0.41-1.4-0.58-1.91-0.66-2.65c-0.03-0.42-0.29-1.12-0.3-1.19c-0.1-0.52-0.44-0.25-0.44-0.25
					l-0.41,1.09c-0.1,0.74-0.29,1.76-0.62,2.9c-0.67,2.3-2.42,1.29-2.69,1.37c-0.27,0.07,0.34,2.37,1.01,2.52
					c0.67,0.14-0.74,2.59-2.15,2.37c-1.41-0.22-0.54,2.16,0.54,2.59c1.08,0.43-1.95,3.09-2.49,2.52c-0.54-0.58-1.01,1.8,0.4,2.73
					c1.41,0.94-0.67,3.45-1.61,2.52s-0.07,2.66,2.09,3.96c1.13,0.68,3.13,0.86,4.78,0.89l0,0c0,0,5.32,0.5,7.47-0.79
					C644.13,171.35,645,167.75,644.06,168.69z"/>
				<g>
					<polygon class="st4" points="636.45,183.34 634.97,183.34 635.68,154.1 636.18,154.1 					"/>
					<polygon class="st4" points="635.41,167.32 630.99,162.87 630.99,162.87 635.64,166.28 					"/>
					<polygon class="st4" points="635.92,163.89 640.35,159.44 640.35,159.44 635.7,162.85 					"/>
					<polygon class="st4" points="635.67,169.06 640.69,165.4 640.69,165.4 635.6,167.99 					"/>
					<polygon class="st4" points="635.74,171.86 630.52,168.54 630.52,168.54 635.75,170.79 					"/>
					<polygon class="st4" points="635.83,161.22 631.81,158.97 631.81,158.97 635.82,160.18 					"/>
				</g>
			</g>
			<g>
				<path class="st4" d="M731.35,135.25c-0.94,0.94-3.03-1.58-1.61-2.52c1.41-0.94,0.94-3.31,0.4-2.73s-3.57-2.09-2.49-2.52
					c1.08-0.43,1.95-2.81,0.54-2.59c-1.41,0.22-2.83-2.23-2.15-2.37s1.28-2.45,1.01-2.52c-0.27-0.07-2.02,0.94-2.69-1.37
					c-0.41-1.4-0.58-1.91-0.66-2.65c-0.03-0.42-0.29-1.12-0.3-1.19c-0.1-0.52-0.44-0.25-0.44-0.25l-0.41,1.09
					c-0.1,0.74-0.29,1.76-0.62,2.9c-0.67,2.3-2.42,1.29-2.69,1.37c-0.27,0.07,0.34,2.37,1.01,2.52c0.67,0.14-0.74,2.59-2.15,2.37
					c-1.41-0.22-0.54,2.16,0.54,2.59c1.08,0.43-1.95,3.09-2.49,2.52c-0.54-0.58-1.01,1.8,0.4,2.73c1.41,0.94-0.67,3.45-1.61,2.52
					c-0.94-0.94-0.07,2.66,2.09,3.96c1.13,0.68,3.13,0.86,4.78,0.89l0,0c0,0,5.32,0.5,7.47-0.79
					C731.42,137.91,732.3,134.31,731.35,135.25z"/>
				<g>
					<polygon class="st4" points="723.75,149.9 722.27,149.9 722.97,120.66 723.48,120.66 					"/>
					<polygon class="st4" points="722.71,133.88 718.28,129.43 718.28,129.43 722.93,132.84 					"/>
					<polygon class="st4" points="723.22,130.45 727.64,126 727.64,126 722.99,129.41 					"/>
					<polygon class="st4" points="722.96,135.62 727.98,131.96 727.98,131.96 722.89,134.55 					"/>
					<polygon class="st4" points="723.04,138.42 717.82,135.1 717.82,135.1 723.05,137.35 					"/>
					<polygon class="st4" points="723.13,127.78 719.1,125.53 719.1,125.53 723.12,126.74 					"/>
				</g>
			</g>
			<g>
				<path class="st4" d="M633.47,170.57c-0.94,0.94-3.03-1.58-1.61-2.52c1.41-0.94,0.94-3.31,0.4-2.73
					c-0.54,0.58-3.57-2.09-2.49-2.52s1.95-2.81,0.54-2.59s-2.83-2.23-2.15-2.37c0.67-0.14,1.28-2.45,1.01-2.52
					c-0.27-0.07-2.02,0.94-2.69-1.37c-0.41-1.4-0.58-1.91-0.66-2.65c-0.03-0.42-0.29-1.12-0.3-1.19c-0.1-0.52-0.44-0.25-0.44-0.25
					l-0.41,1.09c-0.1,0.74-0.29,1.76-0.62,2.9c-0.67,2.3-2.42,1.29-2.69,1.37c-0.27,0.07,0.34,2.37,1.01,2.52
					c0.67,0.14-0.74,2.59-2.15,2.37c-1.41-0.22-0.54,2.16,0.54,2.59s-1.95,3.09-2.49,2.52c-0.54-0.58-1.01,1.8,0.4,2.73
					c1.41,0.94-0.67,3.45-1.61,2.52s-0.07,2.66,2.09,3.96c1.13,0.68,3.13,0.86,4.78,0.89l0,0c0,0,5.32,0.5,7.47-0.79
					C633.54,173.23,634.41,169.64,633.47,170.57z"/>
				<g>
					<polygon class="st4" points="625.86,185.22 624.38,185.22 625.09,155.98 625.59,155.98 					"/>
					<polygon class="st4" points="624.82,169.2 620.4,164.75 620.4,164.75 625.05,168.16 					"/>
					<polygon class="st4" points="625.33,165.77 629.76,161.32 629.76,161.32 625.11,164.73 					"/>
					<polygon class="st4" points="625.08,170.94 630.1,167.28 630.1,167.28 625.01,169.87 					"/>
					<polygon class="st4" points="625.15,173.75 619.93,170.42 619.93,170.42 625.16,172.68 					"/>
					<polygon class="st4" points="625.24,163.1 621.22,160.86 621.22,160.86 625.23,162.06 					"/>
				</g>
			</g>
			<g>
				<path class="st4" d="M594.47,186.2c-0.94,0.94-3.03-1.58-1.61-2.52c1.41-0.94,0.94-3.31,0.4-2.73
					c-0.54,0.58-3.57-2.09-2.49-2.52s1.95-2.81,0.54-2.59s-2.83-2.23-2.15-2.37c0.67-0.14,1.28-2.45,1.01-2.52
					c-0.27-0.07-2.02,0.94-2.69-1.37c-0.41-1.4-0.58-1.91-0.66-2.65c-0.03-0.42-0.29-1.12-0.3-1.19c-0.1-0.52-0.44-0.25-0.44-0.25
					l-0.41,1.09c-0.1,0.74-0.29,1.76-0.62,2.9c-0.67,2.3-2.42,1.29-2.69,1.37c-0.27,0.07,0.34,2.37,1.01,2.52
					c0.67,0.14-0.74,2.59-2.15,2.37c-1.41-0.22-0.54,2.16,0.54,2.59s-1.95,3.09-2.49,2.52c-0.54-0.58-1.01,1.8,0.4,2.73
					s-0.67,3.45-1.61,2.52c-0.94-0.94-0.07,2.66,2.09,3.96c1.13,0.68,3.13,0.86,4.78,0.89l0,0c0,0,5.32,0.5,7.47-0.79
					C594.54,188.87,595.42,185.27,594.47,186.2z"/>
				<g>
					<polygon class="st4" points="586.87,200.86 585.39,200.86 586.09,171.61 586.6,171.61 					"/>
					<polygon class="st4" points="585.83,184.84 581.4,180.38 581.4,180.38 586.05,183.79 					"/>
					<polygon class="st4" points="586.34,181.4 590.76,176.95 590.76,176.95 586.11,180.36 					"/>
					<polygon class="st4" points="586.08,186.57 591.1,182.91 591.1,182.91 586.01,185.5 					"/>
					<polygon class="st4" points="586.16,189.38 580.94,186.05 580.94,186.05 586.17,188.31 					"/>
					<polygon class="st4" points="586.25,178.73 582.22,176.49 582.22,176.49 586.24,177.7 					"/>
				</g>
			</g>
			<g>
				<path class="st4" d="M605.28,181.05c-0.94,0.94-3.03-1.58-1.61-2.52c1.41-0.94,0.94-3.31,0.4-2.73
					c-0.54,0.58-3.57-2.09-2.49-2.52c1.08-0.43,1.95-2.81,0.54-2.59c-1.41,0.22-2.83-2.23-2.15-2.37c0.67-0.14,1.28-2.45,1.01-2.52
					c-0.27-0.07-2.02,0.94-2.69-1.37c-0.41-1.4-0.58-1.91-0.66-2.65c-0.03-0.42-0.29-1.12-0.3-1.19c-0.1-0.52-0.44-0.25-0.44-0.25
					l-0.41,1.09c-0.1,0.74-0.29,1.76-0.62,2.9c-0.67,2.3-2.42,1.29-2.69,1.37c-0.27,0.07,0.34,2.37,1.01,2.52
					c0.67,0.14-0.74,2.59-2.15,2.37c-1.41-0.22-0.54,2.16,0.54,2.59c1.08,0.43-1.95,3.09-2.49,2.52c-0.54-0.58-1.01,1.8,0.4,2.73
					c1.41,0.94-0.67,3.45-1.61,2.52s-0.07,2.66,2.09,3.96c1.13,0.68,3.13,0.86,4.78,0.89l0,0c0,0,5.32,0.5,7.47-0.79
					C605.35,183.71,606.22,180.11,605.28,181.05z"/>
				<g>
					<polygon class="st4" points="597.67,195.7 596.19,195.7 596.9,166.45 597.4,166.45 					"/>
					<polygon class="st4" points="596.63,179.68 592.21,175.22 592.21,175.22 596.86,178.63 					"/>
					<polygon class="st4" points="597.14,176.25 601.57,171.79 601.57,171.79 596.92,175.2 					"/>
					<polygon class="st4" points="596.89,181.41 601.91,177.75 601.91,177.75 596.82,180.35 					"/>
					<polygon class="st4" points="596.96,184.22 591.74,180.9 591.74,180.9 596.97,183.15 					"/>
					<polygon class="st4" points="597.05,173.58 593.03,171.33 593.03,171.33 597.04,172.54 					"/>
				</g>
			</g>
			<g>
				<path class="st4" d="M852.33,142.18c-0.94,0.94-3.03-1.58-1.61-2.52c1.41-0.94,0.94-3.31,0.4-2.73
					c-0.54,0.58-3.57-2.09-2.49-2.52s1.95-2.81,0.54-2.59c-1.41,0.22-2.83-2.23-2.15-2.37c0.67-0.14,1.28-2.45,1.01-2.52
					c-0.27-0.07-2.02,0.94-2.69-1.37c-0.41-1.4-0.58-1.91-0.66-2.65c-0.03-0.42-0.29-1.12-0.3-1.19c-0.1-0.52-0.44-0.25-0.44-0.25
					l-0.41,1.09c-0.1,0.74-0.29,1.76-0.62,2.9c-0.67,2.3-2.42,1.29-2.69,1.37c-0.27,0.07,0.34,2.37,1.01,2.52
					c0.67,0.14-0.74,2.59-2.15,2.37c-1.41-0.22-0.54,2.16,0.54,2.59s-1.95,3.09-2.49,2.52c-0.54-0.58-1.01,1.8,0.4,2.73
					c1.41,0.94-0.67,3.45-1.61,2.52c-0.94-0.94-0.07,2.66,2.09,3.96c1.13,0.68,3.13,0.86,4.78,0.89l0,0c0,0,5.32,0.5,7.47-0.79
					C852.39,144.85,853.27,141.25,852.33,142.18z"/>
				<g>
					<polygon class="st4" points="844.72,156.84 843.24,156.84 843.94,127.59 844.45,127.59 					"/>
					<polygon class="st4" points="843.68,140.82 839.26,136.36 839.26,136.36 843.9,139.77 					"/>
					<polygon class="st4" points="844.19,137.38 848.61,132.93 848.61,132.93 843.96,136.34 					"/>
					<polygon class="st4" points="843.93,142.55 848.96,138.89 848.96,138.89 843.87,141.48 					"/>
					<polygon class="st4" points="844.01,145.36 838.79,142.03 838.79,142.03 844.02,144.29 					"/>
					<polygon class="st4" points="844.1,134.71 840.07,132.47 840.07,132.47 844.09,133.68 					"/>
				</g>
			</g>
			<g>
				<path class="st4" d="M860.56,135.58c-0.94,0.94-3.03-1.58-1.61-2.52s0.94-3.31,0.4-2.73c-0.54,0.58-3.57-2.09-2.49-2.52
					c1.08-0.43,1.95-2.81,0.54-2.59c-1.41,0.22-2.83-2.23-2.15-2.37c0.67-0.14,1.28-2.45,1.01-2.52c-0.27-0.07-2.02,0.94-2.69-1.37
					c-0.41-1.4-0.58-1.91-0.66-2.65c-0.03-0.42-0.29-1.12-0.3-1.19c-0.1-0.52-0.44-0.25-0.44-0.25l-0.41,1.09
					c-0.1,0.74-0.29,1.76-0.62,2.9c-0.67,2.3-2.42,1.29-2.69,1.37c-0.27,0.07,0.34,2.37,1.01,2.52c0.67,0.14-0.74,2.59-2.15,2.37
					s-0.54,2.16,0.54,2.59s-1.95,3.09-2.49,2.52c-0.54-0.58-1.01,1.8,0.4,2.73c1.41,0.94-0.67,3.45-1.61,2.52
					c-0.94-0.94-0.07,2.66,2.09,3.96c1.13,0.68,3.13,0.86,4.78,0.89l0,0c0,0,5.32,0.5,7.47-0.79
					C860.63,138.24,861.5,134.64,860.56,135.58z"/>
				<g>
					<polygon class="st4" points="852.95,150.23 851.47,150.23 852.18,120.98 852.68,120.98 					"/>
					<polygon class="st4" points="851.92,134.21 847.49,129.75 847.49,129.75 852.14,133.16 					"/>
					<polygon class="st4" points="852.42,130.78 856.85,126.32 856.85,126.32 852.2,129.73 					"/>
					<polygon class="st4" points="852.17,135.94 857.19,132.28 857.19,132.28 852.1,134.88 					"/>
					<polygon class="st4" points="852.25,138.75 847.03,135.43 847.03,135.43 852.25,137.68 					"/>
					<polygon class="st4" points="852.33,128.11 848.31,125.86 848.31,125.86 852.32,127.07 					"/>
				</g>
			</g>
			<g>
				<path class="st4" d="M869.35,149.05c-0.94,0.94-3.03-1.58-1.61-2.52c1.41-0.94,0.94-3.31,0.4-2.73s-3.57-2.09-2.49-2.52
					c1.08-0.43,1.95-2.81,0.54-2.59c-1.41,0.22-2.83-2.23-2.15-2.37s1.28-2.45,1.01-2.52c-0.27-0.07-2.02,0.94-2.69-1.37
					c-0.41-1.4-0.58-1.91-0.66-2.65c-0.03-0.42-0.29-1.12-0.3-1.19c-0.1-0.52-0.44-0.25-0.44-0.25l-0.41,1.09
					c-0.1,0.74-0.29,1.76-0.62,2.9c-0.67,2.3-2.42,1.29-2.69,1.37c-0.27,0.07,0.34,2.37,1.01,2.52c0.67,0.14-0.74,2.59-2.15,2.37
					c-1.41-0.22-0.54,2.16,0.54,2.59c1.08,0.43-1.95,3.09-2.49,2.52c-0.54-0.58-1.01,1.8,0.4,2.73c1.41,0.94-0.67,3.45-1.61,2.52
					c-0.94-0.94-0.07,2.66,2.09,3.96c1.13,0.68,3.13,0.86,4.78,0.89l0,0c0,0,5.32,0.5,7.47-0.79
					C869.41,151.72,870.29,148.12,869.35,149.05z"/>
				<g>
					<polygon class="st4" points="861.74,163.71 860.26,163.71 860.97,134.46 861.47,134.46 					"/>
					<polygon class="st4" points="860.7,147.69 856.28,143.23 856.28,143.23 860.92,146.64 					"/>
					<polygon class="st4" points="861.21,144.25 865.63,139.8 865.63,139.8 860.98,143.21 					"/>
					<polygon class="st4" points="860.96,149.42 865.98,145.76 865.98,145.76 860.89,148.35 					"/>
					<polygon class="st4" points="861.03,152.23 855.81,148.9 855.81,148.9 861.04,151.16 					"/>
					<polygon class="st4" points="861.12,141.58 857.09,139.34 857.09,139.34 861.11,140.55 					"/>
				</g>
			</g>
			<g>
				<path class="st4" d="M884.24,142.11c-0.94,0.94-3.03-1.58-1.61-2.52c1.41-0.94,0.94-3.31,0.4-2.73
					c-0.54,0.58-3.57-2.09-2.49-2.52s1.95-2.81,0.54-2.59s-2.83-2.23-2.15-2.37c0.67-0.14,1.28-2.45,1.01-2.52
					c-0.27-0.07-2.02,0.94-2.69-1.37c-0.41-1.4-0.58-1.91-0.66-2.65c-0.03-0.42-0.29-1.12-0.3-1.19c-0.1-0.52-0.44-0.25-0.44-0.25
					l-0.41,1.09c-0.1,0.74-0.29,1.76-0.62,2.9c-0.67,2.3-2.42,1.29-2.69,1.37c-0.27,0.07,0.34,2.37,1.01,2.52
					c0.67,0.14-0.74,2.59-2.15,2.37c-1.41-0.22-0.54,2.16,0.54,2.59s-1.95,3.09-2.49,2.52c-0.54-0.58-1.01,1.8,0.4,2.73
					s-0.67,3.45-1.61,2.52s-0.07,2.66,2.09,3.96c1.13,0.68,3.13,0.86,4.78,0.89l0,0c0,0,5.32,0.5,7.47-0.79
					C884.31,144.77,885.19,141.18,884.24,142.11z"/>
				<g>
					<polygon class="st4" points="876.64,156.76 875.16,156.76 875.86,127.52 876.37,127.52 					"/>
					<polygon class="st4" points="875.6,140.74 871.17,136.29 871.17,136.29 875.82,139.7 					"/>
					<polygon class="st4" points="876.11,137.31 880.53,132.86 880.53,132.86 875.88,136.27 					"/>
					<polygon class="st4" points="875.85,142.48 880.87,138.82 880.87,138.82 875.78,141.41 					"/>
					<polygon class="st4" points="875.93,145.29 870.71,141.96 870.71,141.96 875.94,144.22 					"/>
					<polygon class="st4" points="876.02,134.64 871.99,132.4 871.99,132.4 876.01,133.6 					"/>
				</g>
			</g>
			<g>
				<path class="st4" d="M889.25,153.41c-0.94,0.94-3.03-1.58-1.61-2.52c1.41-0.94,0.94-3.31,0.4-2.73
					c-0.54,0.58-3.57-2.09-2.49-2.52c1.08-0.43,1.95-2.81,0.54-2.59c-1.41,0.22-2.83-2.23-2.15-2.37c0.67-0.14,1.28-2.45,1.01-2.52
					c-0.27-0.07-2.02,0.94-2.69-1.37c-0.41-1.4-0.58-1.91-0.66-2.65c-0.03-0.42-0.29-1.12-0.3-1.19c-0.1-0.52-0.44-0.25-0.44-0.25
					l-0.41,1.09c-0.1,0.74-0.29,1.76-0.62,2.9c-0.67,2.3-2.42,1.29-2.69,1.37c-0.27,0.07,0.34,2.37,1.01,2.52
					c0.67,0.14-0.74,2.59-2.15,2.37c-1.41-0.22-0.54,2.16,0.54,2.59c1.08,0.43-1.95,3.09-2.49,2.52s-1.01,1.8,0.4,2.73
					c1.41,0.94-0.67,3.45-1.61,2.52s-0.07,2.66,2.09,3.96c1.13,0.68,3.13,0.86,4.78,0.89l0,0c0,0,5.32,0.5,7.47-0.79
					C889.32,156.07,890.2,152.48,889.25,153.41z"/>
				<g>
					<polygon class="st4" points="881.65,168.06 880.17,168.06 880.87,138.82 881.38,138.82 					"/>
					<polygon class="st4" points="880.61,152.04 876.18,147.59 876.18,147.59 880.83,151 					"/>
					<polygon class="st4" points="881.12,148.61 885.54,144.16 885.54,144.16 880.89,147.57 					"/>
					<polygon class="st4" points="880.86,153.78 885.88,150.12 885.88,150.12 880.79,152.71 					"/>
					<polygon class="st4" points="880.94,156.59 875.72,153.26 875.72,153.26 880.95,155.52 					"/>
					<polygon class="st4" points="881.03,145.94 877,143.7 877,143.7 881.02,144.9 					"/>
				</g>
			</g>
			<g>
				<path class="st4" d="M902.2,148.65c-0.94,0.94-3.03-1.58-1.61-2.52c1.41-0.94,0.94-3.31,0.4-2.73
					c-0.54,0.58-3.57-2.09-2.49-2.52s1.95-2.81,0.54-2.59c-1.41,0.22-2.83-2.23-2.15-2.37c0.67-0.14,1.28-2.45,1.01-2.52
					c-0.27-0.07-2.02,0.94-2.69-1.37c-0.41-1.4-0.58-1.91-0.66-2.65c-0.03-0.42-0.29-1.12-0.3-1.19c-0.1-0.52-0.44-0.25-0.44-0.25
					l-0.41,1.09c-0.1,0.74-0.29,1.76-0.62,2.9c-0.67,2.3-2.42,1.29-2.69,1.37c-0.27,0.07,0.34,2.37,1.01,2.52
					c0.67,0.14-0.74,2.59-2.15,2.37c-1.41-0.22-0.54,2.16,0.54,2.59s-1.95,3.09-2.49,2.52c-0.54-0.58-1.01,1.8,0.4,2.73
					c1.41,0.94-0.67,3.45-1.61,2.52s-0.07,2.66,2.09,3.96c1.13,0.68,3.13,0.86,4.78,0.89l0,0c0,0,5.32,0.5,7.47-0.79
					C902.26,151.31,903.14,147.71,902.2,148.65z"/>
				<g>
					<polygon class="st4" points="894.59,163.3 893.11,163.3 893.81,134.05 894.32,134.05 					"/>
					<polygon class="st4" points="893.55,147.28 889.13,142.82 889.13,142.82 893.77,146.23 					"/>
					<polygon class="st4" points="894.06,143.85 898.48,139.39 898.48,139.39 893.83,142.8 					"/>
					<polygon class="st4" points="893.8,149.01 898.83,145.35 898.83,145.35 893.74,147.95 					"/>
					<polygon class="st4" points="893.88,151.82 888.66,148.5 888.66,148.5 893.89,150.75 					"/>
					<polygon class="st4" points="893.97,141.18 889.94,138.93 889.94,138.93 893.96,140.14 					"/>
				</g>
			</g>
			<g>
				<path class="st4" d="M894.56,147.01c-0.94,0.94-3.03-1.58-1.61-2.52c1.41-0.94,0.94-3.31,0.4-2.73
					c-0.54,0.58-3.57-2.09-2.49-2.52c1.08-0.43,1.95-2.81,0.54-2.59c-1.41,0.22-2.83-2.23-2.15-2.37c0.67-0.14,1.28-2.45,1.01-2.52
					c-0.27-0.07-2.02,0.94-2.69-1.37c-0.41-1.4-0.58-1.91-0.66-2.65c-0.03-0.42-0.29-1.12-0.3-1.19c-0.1-0.52-0.44-0.25-0.44-0.25
					l-0.41,1.09c-0.1,0.74-0.29,1.76-0.62,2.9c-0.67,2.3-2.42,1.29-2.69,1.37c-0.27,0.07,0.34,2.37,1.01,2.52
					c0.67,0.14-0.74,2.59-2.15,2.37c-1.41-0.22-0.54,2.16,0.54,2.59c1.08,0.43-1.95,3.09-2.49,2.52c-0.54-0.58-1.01,1.8,0.4,2.73
					c1.41,0.94-0.67,3.45-1.61,2.52s-0.07,2.66,2.09,3.96c1.13,0.68,3.13,0.86,4.78,0.89l0,0c0,0,5.32,0.5,7.47-0.79
					C894.62,149.67,895.5,146.08,894.56,147.01z"/>
				<g>
					<polygon class="st4" points="886.95,161.66 885.47,161.66 886.18,132.42 886.68,132.42 					"/>
					<polygon class="st4" points="885.91,145.64 881.49,141.19 881.49,141.19 886.13,144.6 					"/>
					<polygon class="st4" points="886.42,142.21 890.84,137.76 890.84,137.76 886.19,141.17 					"/>
					<polygon class="st4" points="886.17,147.38 891.19,143.72 891.19,143.72 886.1,146.31 					"/>
					<polygon class="st4" points="886.24,150.19 881.02,146.86 881.02,146.86 886.25,149.12 					"/>
					<polygon class="st4" points="886.33,139.54 882.3,137.3 882.3,137.3 886.32,138.5 					"/>
				</g>
			</g>
			<g>
				<path class="st4" d="M906.96,153.15c-0.94,0.94-3.03-1.58-1.61-2.52c1.41-0.94,0.94-3.31,0.4-2.73
					c-0.54,0.58-3.57-2.09-2.49-2.52c1.08-0.43,1.95-2.81,0.54-2.59c-1.41,0.22-2.83-2.23-2.15-2.37c0.67-0.14,1.28-2.45,1.01-2.52
					c-0.27-0.07-2.02,0.94-2.69-1.37c-0.41-1.4-0.58-1.91-0.66-2.65c-0.03-0.42-0.29-1.12-0.3-1.19c-0.1-0.52-0.44-0.25-0.44-0.25
					l-0.41,1.09c-0.1,0.74-0.29,1.76-0.62,2.9c-0.67,2.3-2.42,1.29-2.69,1.37c-0.27,0.07,0.34,2.37,1.01,2.52
					c0.67,0.14-0.74,2.59-2.15,2.37c-1.41-0.22-0.54,2.16,0.54,2.59c1.08,0.43-1.95,3.09-2.49,2.52c-0.54-0.58-1.01,1.8,0.4,2.73
					c1.41,0.94-0.67,3.45-1.61,2.52s-0.07,2.66,2.09,3.96c1.13,0.68,3.13,0.86,4.78,0.89l0,0c0,0,5.32,0.5,7.47-0.79
					C907.03,155.81,907.9,152.21,906.96,153.15z"/>
				<g>
					<polygon class="st4" points="899.35,167.8 897.87,167.8 898.58,138.55 899.08,138.55 					"/>
					<polygon class="st4" points="898.31,151.78 893.89,147.32 893.89,147.32 898.54,150.73 					"/>
					<polygon class="st4" points="898.82,148.35 903.24,143.89 903.24,143.89 898.6,147.3 					"/>
					<polygon class="st4" points="898.57,153.51 903.59,149.85 903.59,149.85 898.5,152.45 					"/>
					<polygon class="st4" points="898.64,156.32 893.42,153 893.42,153 898.65,155.25 					"/>
					<polygon class="st4" points="898.73,145.68 894.7,143.43 894.7,143.43 898.72,144.64 					"/>
				</g>
			</g>
			<g>
				<path class="st4" d="M915.07,146.59c-0.94,0.94-3.03-1.58-1.61-2.52c1.41-0.94,0.94-3.31,0.4-2.73
					c-0.54,0.58-3.57-2.09-2.49-2.52s1.95-2.81,0.54-2.59c-1.41,0.22-2.83-2.23-2.15-2.37c0.67-0.14,1.28-2.45,1.01-2.52
					c-0.27-0.07-2.02,0.94-2.69-1.37c-0.41-1.4-0.58-1.91-0.66-2.65c-0.03-0.42-0.29-1.12-0.3-1.19c-0.1-0.52-0.44-0.25-0.44-0.25
					l-0.41,1.09c-0.1,0.74-0.29,1.76-0.62,2.9c-0.67,2.3-2.42,1.29-2.69,1.37c-0.27,0.07,0.34,2.37,1.01,2.52
					c0.67,0.14-0.74,2.59-2.15,2.37c-1.41-0.22-0.54,2.16,0.54,2.59s-1.95,3.09-2.49,2.52c-0.54-0.58-1.01,1.8,0.4,2.73
					c1.41,0.94-0.67,3.45-1.61,2.52s-0.07,2.66,2.09,3.96c1.13,0.68,3.13,0.86,4.78,0.89l0,0c0,0,5.32,0.5,7.47-0.79
					C915.14,149.25,916.01,145.65,915.07,146.59z"/>
				<g>
					<polygon class="st4" points="907.46,161.24 905.98,161.24 906.69,132 907.2,132 					"/>
					<polygon class="st4" points="906.43,145.22 902,140.77 902,140.77 906.65,144.18 					"/>
					<polygon class="st4" points="906.93,141.79 911.36,137.34 911.36,137.34 906.71,140.75 					"/>
					<polygon class="st4" points="906.68,146.96 911.7,143.3 911.7,143.3 906.61,145.89 					"/>
					<polygon class="st4" points="906.76,149.76 901.54,146.44 901.54,146.44 906.76,148.69 					"/>
					<polygon class="st4" points="906.84,139.12 902.82,136.87 902.82,136.87 906.83,138.08 					"/>
				</g>
			</g>
			<g>
				<path class="st4" d="M1140.46,191.88c-0.94,0.94-3.03-1.58-1.61-2.52c1.41-0.94,0.94-3.31,0.4-2.73
					c-0.54,0.58-3.57-2.09-2.49-2.52s1.95-2.81,0.54-2.59c-1.41,0.22-2.83-2.23-2.15-2.37c0.67-0.14,1.28-2.45,1.01-2.52
					c-0.27-0.07-2.02,0.94-2.69-1.37c-0.41-1.4-0.58-1.91-0.66-2.65c-0.03-0.42-0.29-1.12-0.3-1.19c-0.1-0.52-0.44-0.25-0.44-0.25
					l-0.41,1.09c-0.1,0.74-0.29,1.76-0.62,2.9c-0.67,2.3-2.42,1.29-2.69,1.37c-0.27,0.07,0.34,2.37,1.01,2.52
					c0.67,0.14-0.74,2.59-2.15,2.37c-1.41-0.22-0.54,2.16,0.54,2.59s-1.95,3.09-2.49,2.52c-0.54-0.58-1.01,1.8,0.4,2.73
					c1.41,0.94-0.67,3.45-1.61,2.52c-0.94-0.94-0.07,2.66,2.09,3.96c1.13,0.68,3.13,0.86,4.78,0.89l0,0c0,0,5.32,0.5,7.47-0.79
					C1140.53,194.54,1141.4,190.94,1140.46,191.88z"/>
				<g>
					<polygon class="st4" points="1132.85,206.53 1131.37,206.53 1132.08,177.28 1132.58,177.28 					"/>
					<polygon class="st4" points="1131.81,190.51 1127.39,186.05 1127.39,186.05 1132.04,189.46 					"/>
					<polygon class="st4" points="1132.32,187.08 1136.75,182.62 1136.75,182.62 1132.1,186.03 					"/>
					<polygon class="st4" points="1132.07,192.24 1137.09,188.58 1137.09,188.58 1132,191.18 					"/>
					<polygon class="st4" points="1132.14,195.05 1126.92,191.73 1126.92,191.73 1132.15,193.98 					"/>
					<polygon class="st4" points="1132.23,184.41 1128.21,182.16 1128.21,182.16 1132.22,183.37 					"/>
				</g>
			</g>
			<g>
				<path class="st4" d="M1141.7,205.01c-0.94,0.94,2.26-1.37,3.67-2.31s-0.91-2.93-1.45-2.35c-0.54,0.58-1.72-2.47-0.64-2.9
					c1.08-0.43,1.95-2.81,0.54-2.59s-2.83-2.23-2.15-2.37c0.67-0.14,1.28-2.45,1.01-2.52s-2.02,0.94-2.69-1.37
					c-0.41-1.4-0.58-1.91-0.66-2.65c-0.03-0.42-0.29-1.12-0.3-1.19c-0.1-0.52-0.44-0.25-0.44-0.25l-0.41,1.09
					c-0.1,0.74-0.29,1.76-0.62,2.9c-0.67,2.3-2.42,1.29-2.69,1.37c-0.27,0.07,0.34,2.37,1.01,2.52s-0.74,2.59-2.15,2.37
					s-0.54,2.16,0.54,2.59c1.08,0.43-1.95,3.09-2.49,2.52c-0.54-0.58-1.01,1.8,0.4,2.73c1.41,0.94-0.67,3.45-1.61,2.52
					c-0.94-0.94-0.07,2.66,2.09,3.96c1.13,0.68,3.13,0.86,4.78,0.89l0,0c0,0,5.32,0.5,7.47-0.79
					C1147.06,207.88,1142.64,204.08,1141.7,205.01z"/>
				<g>
					<polygon class="st4" points="1139.38,219.87 1137.9,219.87 1138.61,190.63 1139.11,190.63 					"/>
					<polygon class="st4" points="1138.34,203.85 1133.92,199.4 1133.92,199.4 1138.57,202.81 					"/>
					<polygon class="st4" points="1138.85,200.42 1143.28,195.97 1143.28,195.97 1138.63,199.38 					"/>
					<polygon class="st4" points="1138.6,205.59 1143.62,201.93 1143.62,201.93 1138.53,204.52 					"/>
					<polygon class="st4" points="1138.67,208.39 1133.45,205.07 1133.45,205.07 1138.68,207.32 					"/>
					<polygon class="st4" points="1138.76,197.75 1134.74,195.5 1134.74,195.5 1138.75,196.71 					"/>
				</g>
			</g>
			<g>
				<path class="st4" d="M1131.46,202.5c-0.94,0.94-3.03-1.58-1.61-2.52c1.41-0.94,0.94-3.31,0.4-2.73
					c-0.54,0.58-3.57-2.09-2.49-2.52s1.95-2.81,0.54-2.59c-1.41,0.22-2.83-2.23-2.15-2.37c0.67-0.14,1.28-2.45,1.01-2.52
					c-0.27-0.07-2.02,0.94-2.69-1.37c-0.41-1.4-0.58-1.91-0.66-2.65c-0.03-0.42-0.29-1.12-0.3-1.19c-0.1-0.52-0.44-0.25-0.44-0.25
					l-0.41,1.09c-0.1,0.74-0.29,1.76-0.62,2.9c-0.67,2.3-2.42,1.29-2.69,1.37c-0.27,0.07,0.34,2.37,1.01,2.52
					c0.67,0.14-0.74,2.59-2.15,2.37c-1.41-0.22-0.54,2.16,0.54,2.59s-1.95,3.09-2.49,2.52c-0.54-0.58-1.01,1.8,0.4,2.73
					c1.41,0.94-0.67,3.45-1.61,2.52c-0.94-0.94-0.07,2.66,2.09,3.96c1.13,0.68,3.13,0.86,4.78,0.89l0,0c0,0,5.32,0.5,7.47-0.79
					C1131.52,205.16,1132.4,201.56,1131.46,202.5z"/>
				<g>
					<polygon class="st4" points="1123.85,217.15 1122.37,217.15 1123.08,187.9 1123.58,187.9 					"/>
					<polygon class="st4" points="1122.81,201.13 1118.39,196.67 1118.39,196.67 1123.04,200.08 					"/>
					<polygon class="st4" points="1123.32,197.7 1127.74,193.24 1127.74,193.24 1123.1,196.65 					"/>
					<polygon class="st4" points="1123.07,202.86 1128.09,199.2 1128.09,199.2 1123,201.8 					"/>
					<polygon class="st4" points="1123.14,205.67 1117.92,202.35 1117.92,202.35 1123.15,204.6 					"/>
					<polygon class="st4" points="1123.23,195.03 1119.2,192.78 1119.2,192.78 1123.22,193.99 					"/>
				</g>
			</g>
			<g>
				<path class="st4" d="M1141.13,204.4c-0.94,0.94-3.03-1.58-1.61-2.52c1.41-0.94,0.94-3.31,0.4-2.73
					c-0.54,0.58-3.57-2.09-2.49-2.52s1.95-2.81,0.54-2.59c-1.41,0.22-2.83-2.23-2.15-2.37c0.67-0.14,1.28-2.45,1.01-2.52
					c-0.27-0.07-2.02,0.94-2.69-1.37c-0.41-1.4-0.58-1.91-0.66-2.65c-0.03-0.42-0.29-1.12-0.3-1.19c-0.1-0.52-0.44-0.25-0.44-0.25
					l-0.41,1.09c-0.1,0.74-0.29,1.76-0.62,2.9c-0.67,2.3-2.42,1.29-2.69,1.37c-0.27,0.07,0.34,2.37,1.01,2.52
					c0.67,0.14-0.74,2.59-2.15,2.37c-1.41-0.22-0.54,2.16,0.54,2.59s-1.95,3.09-2.49,2.52c-0.54-0.58-1.01,1.8,0.4,2.73
					c1.41,0.94-0.67,3.45-1.61,2.52c-0.94-0.94-0.07,2.66,2.09,3.96c1.13,0.68,3.13,0.86,4.78,0.89l0,0c0,0,5.32,0.5,7.47-0.79
					C1141.2,207.06,1142.08,203.47,1141.13,204.4z"/>
				<g>
					<polygon class="st4" points="1133.53,219.05 1132.05,219.05 1132.75,189.81 1133.26,189.81 					"/>
					<polygon class="st4" points="1132.49,203.03 1128.06,198.58 1128.06,198.58 1132.71,201.99 					"/>
					<polygon class="st4" points="1133,199.6 1137.42,195.15 1137.42,195.15 1132.77,198.56 					"/>
					<polygon class="st4" points="1132.74,204.77 1137.76,201.11 1137.76,201.11 1132.67,203.7 					"/>
					<polygon class="st4" points="1132.82,207.58 1127.6,204.25 1127.6,204.25 1132.83,206.51 					"/>
					<polygon class="st4" points="1132.91,196.93 1128.88,194.69 1128.88,194.69 1132.9,195.89 					"/>
				</g>
			</g>
			<g>
				<path class="st4" d="M1121.53,197.32c-0.94,0.94-3.03-1.58-1.61-2.52c1.41-0.94,0.94-3.31,0.4-2.73
					c-0.54,0.58-3.57-2.09-2.49-2.52c1.08-0.43,1.95-2.81,0.54-2.59c-1.41,0.22-2.83-2.23-2.15-2.37c0.67-0.14,1.28-2.45,1.01-2.52
					c-0.27-0.07-2.02,0.94-2.69-1.37c-0.41-1.4-0.58-1.91-0.66-2.65c-0.03-0.42-0.29-1.12-0.3-1.19c-0.1-0.52-0.44-0.25-0.44-0.25
					l-0.41,1.09c-0.1,0.74-0.29,1.76-0.62,2.9c-0.67,2.3-2.42,1.29-2.69,1.37c-0.27,0.07,0.34,2.37,1.01,2.52
					c0.67,0.14-0.74,2.59-2.15,2.37c-1.41-0.22-0.54,2.16,0.54,2.59s-1.95,3.09-2.49,2.52c-0.54-0.58-1.01,1.8,0.4,2.73
					c1.41,0.94-0.67,3.45-1.61,2.52c-0.94-0.94-0.07,2.66,2.09,3.96c1.13,0.68,3.13,0.86,4.78,0.89l0,0c0,0,5.32,0.5,7.47-0.79
					S1122.47,196.39,1121.53,197.32z"/>
				<g>
					<polygon class="st4" points="1113.92,211.97 1112.44,211.97 1113.14,182.73 1113.65,182.73 					"/>
					<polygon class="st4" points="1112.88,195.95 1108.46,191.5 1108.46,191.5 1113.1,194.91 					"/>
					<polygon class="st4" points="1113.39,192.52 1117.81,188.07 1117.81,188.07 1113.16,191.48 					"/>
					<polygon class="st4" points="1113.14,197.69 1118.16,194.03 1118.16,194.03 1113.07,196.62 					"/>
					<polygon class="st4" points="1113.21,200.5 1107.99,197.17 1107.99,197.17 1113.22,199.43 					"/>
					<polygon class="st4" points="1113.3,189.85 1109.27,187.61 1109.27,187.61 1113.29,188.81 					"/>
				</g>
			</g>
			<g>
				<path class="st4" d="M1109.3,191.6c-0.94,0.94-3.03-1.58-1.61-2.52c1.41-0.94,0.94-3.31,0.4-2.73
					c-0.54,0.58-3.57-2.09-2.49-2.52s1.95-2.81,0.54-2.59c-1.41,0.22-2.83-2.23-2.15-2.37s1.28-2.45,1.01-2.52
					c-0.27-0.07-2.02,0.94-2.69-1.37c-0.41-1.4-0.58-1.91-0.66-2.65c-0.03-0.42-0.29-1.12-0.3-1.19c-0.1-0.52-0.44-0.25-0.44-0.25
					l-0.41,1.09c-0.1,0.74-0.29,1.76-0.62,2.9c-0.67,2.3-2.42,1.29-2.69,1.37c-0.27,0.07,0.34,2.37,1.01,2.52
					c0.67,0.14-0.74,2.59-2.15,2.37s-0.54,2.16,0.54,2.59s-1.95,3.09-2.49,2.52c-0.54-0.58-1.01,1.8,0.4,2.73
					c1.41,0.94-0.67,3.45-1.61,2.52c-0.94-0.94-0.07,2.66,2.09,3.96c1.13,0.68,3.13,0.86,4.78,0.89l0,0c0,0,5.32,0.5,7.47-0.79
					C1109.37,194.27,1110.25,190.67,1109.3,191.6z"/>
				<g>
					<polygon class="st4" points="1101.7,206.26 1100.22,206.26 1100.92,177.01 1101.43,177.01 					"/>
					<polygon class="st4" points="1100.66,190.24 1096.23,185.78 1096.23,185.78 1100.88,189.19 					"/>
					<polygon class="st4" points="1101.17,186.81 1105.59,182.35 1105.59,182.35 1100.94,185.76 					"/>
					<polygon class="st4" points="1100.91,191.97 1105.93,188.31 1105.93,188.31 1100.84,190.9 					"/>
					<polygon class="st4" points="1100.99,194.78 1095.77,191.45 1095.77,191.45 1101,193.71 					"/>
					<polygon class="st4" points="1101.08,184.13 1097.05,181.89 1097.05,181.89 1101.07,183.1 					"/>
				</g>
			</g>
			<g>
				<path class="st4" d="M1094.02,189.97c-0.94,0.94-3.03-1.58-1.61-2.52c1.41-0.94,0.94-3.31,0.4-2.73
					c-0.54,0.58-3.57-2.09-2.49-2.52s1.95-2.81,0.54-2.59c-1.41,0.22-2.83-2.23-2.15-2.37c0.67-0.14,1.28-2.45,1.01-2.52
					c-0.27-0.07-2.02,0.94-2.69-1.37c-0.41-1.4-0.58-1.91-0.66-2.65c-0.03-0.42-0.29-1.12-0.3-1.19c-0.1-0.52-0.44-0.25-0.44-0.25
					l-0.41,1.09c-0.1,0.74-0.29,1.76-0.62,2.9c-0.67,2.3-2.42,1.29-2.69,1.37c-0.27,0.07,0.34,2.37,1.01,2.52
					c0.67,0.14-0.74,2.59-2.15,2.37c-1.41-0.22-0.54,2.16,0.54,2.59s-1.95,3.09-2.49,2.52c-0.54-0.58-1.01,1.8,0.4,2.73
					c1.41,0.94-0.67,3.45-1.61,2.52c-0.94-0.94-0.07,2.66,2.09,3.96c1.13,0.68,3.13,0.86,4.78,0.89l0,0c0,0,5.32,0.5,7.47-0.79
					S1094.97,189.04,1094.02,189.97z"/>
				<g>
					<polygon class="st4" points="1086.42,204.62 1084.94,204.62 1085.64,175.38 1086.15,175.38 					"/>
					<polygon class="st4" points="1085.38,188.6 1080.95,184.15 1080.95,184.15 1085.6,187.56 					"/>
					<polygon class="st4" points="1085.89,185.17 1090.31,180.72 1090.31,180.72 1085.66,184.13 					"/>
					<polygon class="st4" points="1085.63,190.34 1090.65,186.68 1090.65,186.68 1085.56,189.27 					"/>
					<polygon class="st4" points="1085.71,193.15 1080.49,189.82 1080.49,189.82 1085.72,192.08 					"/>
					<polygon class="st4" points="1085.8,182.5 1081.77,180.26 1081.77,180.26 1085.79,181.46 					"/>
				</g>
			</g>
			<g>
				<path class="st4" d="M1116.34,186.84c-0.94,0.94-3.03-1.58-1.61-2.52c1.41-0.94,0.94-3.31,0.4-2.73
					c-0.54,0.58-3.57-2.09-2.49-2.52c1.08-0.43,1.95-2.81,0.54-2.59s-2.83-2.23-2.15-2.37s1.28-2.45,1.01-2.52
					c-0.27-0.07-2.02,0.94-2.69-1.37c-0.41-1.4-0.58-1.91-0.66-2.65c-0.03-0.42-0.29-1.12-0.3-1.19c-0.1-0.52-0.44-0.25-0.44-0.25
					l-0.41,1.09c-0.1,0.74-0.29,1.76-0.62,2.9c-0.67,2.3-2.42,1.29-2.69,1.37c-0.27,0.07,0.34,2.37,1.01,2.52
					c0.67,0.14-0.74,2.59-2.15,2.37s-0.54,2.16,0.54,2.59c1.08,0.43-1.95,3.09-2.49,2.52c-0.54-0.58-1.01,1.8,0.4,2.73
					s-0.67,3.45-1.61,2.52c-0.94-0.94-0.07,2.66,2.09,3.96c1.13,0.68,3.13,0.86,4.78,0.89l0,0c0,0,5.32,0.5,7.47-0.79
					S1117.29,185.91,1116.34,186.84z"/>
				<g>
					<polygon class="st4" points="1108.74,201.49 1107.26,201.49 1107.96,172.25 1108.47,172.25 					"/>
					<polygon class="st4" points="1107.7,185.47 1103.27,181.02 1103.27,181.02 1107.92,184.43 					"/>
					<polygon class="st4" points="1108.21,182.04 1112.63,177.59 1112.63,177.59 1107.98,181 					"/>
					<polygon class="st4" points="1107.95,187.21 1112.97,183.55 1112.97,183.55 1107.88,186.14 					"/>
					<polygon class="st4" points="1108.03,190.02 1102.81,186.69 1102.81,186.69 1108.04,188.95 					"/>
					<polygon class="st4" points="1108.12,179.37 1104.09,177.13 1104.09,177.13 1108.11,178.33 					"/>
				</g>
			</g>
		</g>
	</g>
	<g>
		<g>
			<path class="st5" d="M858.24,160.01c0.06-3.94-2.02-7.51-5.41-9.07c-0.51-3.77-3-6.99-6.66-8c-5.01-1.38-10.29,1.9-11.78,7.33
				c-0.57,2.06-0.5,4.14,0.07,5.99c-0.15,0.37-0.32,0.73-0.43,1.13c-0.6,2.17-0.47,4.34,0.18,6.27c-1.4,2.49-1.76,5.63-0.68,8.66
				c1.9,5.3,7.41,8.17,12.3,6.41c0.84-0.3,1.59-0.76,2.27-1.28c0.88,0.67,1.86,1.2,2.98,1.51c5.01,1.38,10.29-1.9,11.78-7.33
				C864.18,166.88,862.14,162.06,858.24,160.01z"/>
			<path class="st5" d="M903.83,147.93c-3.25-0.89-6.6,0.2-8.97,2.54c-1.01-0.92-2.2-1.63-3.58-2.01
				c-5.01-1.38-10.29,1.9-11.78,7.33c-0.13,0.47-0.18,0.93-0.25,1.39c-1.48,1.31-2.64,3.08-3.22,5.19
				c-1.49,5.43,1.37,10.94,6.38,12.32c0.7,0.19,1.41,0.27,2.11,0.29c1.16,2.16,3.09,3.84,5.55,4.51c3.8,1.05,7.75-0.6,10.09-3.82
				c4.18-0.05,8.1-3.06,9.35-7.6c0.55-2.02,0.5-4.05-0.03-5.88c0.3-0.61,0.56-1.27,0.74-1.96
				C911.7,154.83,908.85,149.31,903.83,147.93z"/>
			<path class="st5" d="M912.79,124c-1.01-4.27-4.36-7.29-8.19-7.86c0.91-1.12,1.64-2.44,2.05-3.95c1.49-5.43-1.37-10.94-6.38-12.32
				c-1.1-0.3-2.2-0.34-3.28-0.22c-1.17-1.54-2.78-2.71-4.73-3.25c-3.81-1.05-7.76,0.61-10.1,3.84c-4.51-0.4-8.88,2.72-10.22,7.58
				c-0.96,3.51-0.09,7.04,1.99,9.48c-0.02,0-0.04,0-0.05,0.01c-5.06,1.19-8.12,6.6-6.83,12.08c1.09,4.64,4.96,7.81,9.2,7.95
				c1.17,1.55,2.78,2.73,4.74,3.27c1.08,0.3,2.16,0.34,3.23,0.23c1.98,4.16,6.37,6.58,10.71,5.56c4.52-1.07,7.42-5.49,7.07-10.33
				c1.28,0.29,2.62,0.32,3.96,0C911.03,134.89,914.08,129.48,912.79,124z"/>
			<path class="st5" d="M873.08,101.96c0-4.7-2.96-8.62-6.95-9.79c-1.72-2.5-4.44-4.13-7.53-4.13c0,0,0,0,0,0
				c-1.71-2.55-4.47-4.23-7.61-4.23c-3.62,0-6.73,2.24-8.3,5.48c-1.59-1.32-3.55-2.14-5.71-2.14c-5.2,0-9.42,4.56-9.42,10.19
				c0,1.18,0.22,2.29,0.56,3.34c-2.09,1.98-3.04,4.79-2.76,7.65c-0.07,0.06-0.16,0.09-0.23,0.15c-4.04,3.28-4.43,9.48-0.88,13.85
				c0.93,1.14,2.04,2.03,3.23,2.68c0.07,2.22,0.82,4.48,2.37,6.39c3.09,3.81,8.16,4.96,12.08,3.03c1.51,1.11,3.33,1.76,5.29,1.76
				c3.37,0,6.3-1.93,7.96-4.8c0.16,0.08,0.32,0.17,0.48,0.24c1.22,0.63,2.57,1.01,4.01,1.01c5.2,0,9.42-4.56,9.42-10.19
				c0-1.55-0.34-3-0.92-4.32c2.23-1.32,3.77-3.86,3.77-6.81c0-1.19-0.27-2.31-0.71-3.32C872.38,106.3,873.08,104.22,873.08,101.96z"
				/>
		</g>
		<g>
			<path class="st5" d="M890.45,161.18c0,0-22.43,28.48-24.56,31.68c-2.14,3.2,1.07,8.9,1.07,8.9L890.45,161.18z"/>
			<path class="st5" d="M862.14,252.8c0,0-0.16-87.53,0.11-94.2c0.27-6.67-9.34-23.76-9.08-34.97c0.27-11.21,0.27-17.35,0.27-17.35
				s0.53,22.96,5.07,30.44c4.54,7.48,7.21,15.22,7.21,15.22s11.75-18.15,13.08-25.9c0,0-1.87,16.02-5.07,20.82
				c-3.2,4.81-5.34,12.81-5.34,16.82c0,4-0.27,30.44-0.27,30.44l1.52,56.69L862.14,252.8z"/>
			<polygon class="st5" points="864.38,184.77 849.7,161.27 863.04,191.44 			"/>
		</g>
	</g>
	<g>
		<g>
			<path class="st6" d="M960.16,243.77c0.04-2.62-1.35-5-3.6-6.04c-0.34-2.51-1.99-4.65-4.43-5.32c-3.34-0.92-8.76-0.3-9.75,3.32
				c-0.38,1.37-1.5,4.2-1.13,5.44c-0.1,0.25,0.01,2.8-0.06,3.06c-0.4,1.44-0.25,1.34,0.19,2.63c-0.93,1.65,1.62,3.1,2.34,5.12
				c1.27,3.53,4.93,5.44,8.19,4.27c0.56-0.2,1.06-0.51,1.51-0.85c0.58,0.44,1.24,0.8,1.98,1.01c3.34,0.92,6.85-1.27,7.84-4.88
				C964.11,248.34,962.75,245.13,960.16,243.77z"/>
			<path class="st6" d="M990.51,235.72c-2.17-0.6-4.39,0.13-5.97,1.69c-0.67-0.61-1.46-1.08-2.38-1.34
				c-3.34-0.92-6.85,1.27-7.84,4.88c-0.09,0.31-0.12,0.62-0.16,0.93c-0.99,0.87-1.76,2.05-2.15,3.46c-0.99,3.61,0.91,7.28,4.25,8.2
				c0.47,0.13,0.94,0.18,1.4,0.19c0.77,1.44,2.06,2.56,3.69,3.01c2.53,0.7,5.16-0.4,6.71-2.54c2.79-0.04,5.39-2.03,6.22-5.06
				c0.37-1.34,0.34-2.7-0.02-3.91c0.2-0.41,0.37-0.84,0.5-1.3C995.75,240.31,993.85,236.64,990.51,235.72z"/>
			<path class="st6" d="M989.31,220.13c-0.67-2.84-2.9-4.85-5.45-5.23c0.61-0.75,1.09-1.63,1.37-2.63c0.99-3.61-0.91-7.28-4.25-8.2
				c-0.73-0.2-1.47-0.23-2.19-0.15c-0.78-1.02-1.85-1.8-3.15-2.16c-2.54-0.7-5.17,0.4-6.72,2.56c-3-0.26-5.91,1.81-6.8,5.05
				c-0.64,2.34-0.06,4.69,1.32,6.31c-0.01,0-0.02,0-0.04,0c-3.37,0.79-5.4,4.39-4.54,8.04c0.73,3.09,3.3,5.2,6.12,5.29
				c0.78,1.03,1.85,1.82,3.16,2.18c0.72,0.2,1.44,0.22,2.15,0.15c1.32,2.77,4.24,4.38,7.13,3.7c3.01-0.71,4.94-3.66,4.71-6.87
				c0.85,0.19,1.75,0.21,2.64,0C988.13,227.37,990.16,223.77,989.31,220.13z"/>
			<path class="st6" d="M972.54,205.62c0-3.13-1.97-5.74-4.63-6.52c-1.14-1.66-2.95-2.75-5.02-2.75c0,0,0,0,0,0
				c-1.14-1.7-2.98-2.81-5.06-2.81c-2.41,0-4.48,1.49-5.53,3.65c-1.06-0.88-2.37-1.43-3.8-1.43c-3.46,0-6.27,3.04-6.27,6.78
				c0,0.78,0.15,1.52,0.37,2.22c-1.39,1.32-2.02,3.19-1.84,5.09c-0.05,0.04-0.11,0.06-0.16,0.1c-2.69,2.18-2.95,6.31-0.59,9.22
				c0.62,0.76,1.36,1.35,2.15,1.79c0.04,1.48,0.54,2.98,1.58,4.26c2.06,2.53,5.43,3.3,8.04,2.02c1,0.74,2.21,1.17,3.52,1.17
				c2.24,0,4.19-1.28,5.3-3.2c0.11,0.05,0.21,0.11,0.32,0.16c0.81,0.42,1.71,0.67,2.67,0.67c3.46,0,6.27-3.04,6.27-6.78
				c0-1.03-0.23-2-0.61-2.87c1.49-0.88,2.51-2.57,2.51-4.53c0-0.79-0.18-1.54-0.47-2.21C972.07,208.51,972.54,207.13,972.54,205.62z
				"/>
		</g>
		<g>
			<path class="st6" d="M981.6,244.54c0,0-14.93,18.96-16.35,21.09c-1.42,2.13,0.71,5.92,0.71,5.92L981.6,244.54z"/>
			<path class="st6" d="M962.75,305.53c0,0-0.11-58.27,0.07-62.71c0.18-4.44-6.22-15.82-6.04-23.28c0.18-7.46,0.18-11.55,0.18-11.55
				s0.36,15.28,3.38,20.26c3.02,4.98,4.8,10.13,4.8,10.13s7.82-12.09,8.71-17.24c0,0-1.24,10.66-3.38,13.86
				c-2.13,3.2-3.55,8.53-3.55,11.2s-0.18,20.26-0.18,20.26l1.01,37.74L962.75,305.53z"/>
			<polygon class="st6" points="964.25,260.24 954.47,244.6 963.36,264.69 			"/>
		</g>
	</g>
	<g>
		<g>
			<path class="st6" d="M789.68,230.03c-0.04-2.35,1.21-4.48,3.23-5.41c0.3-2.25,1.79-4.17,3.97-4.77c2.99-0.82,6.13,1.14,7.02,4.37
				c0.34,1.23,0.3,2.47-0.04,3.57c0.09,0.22,0.19,0.44,0.25,0.67c0.36,1.29,0.28,2.59-0.11,3.74c0.83,1.48,1.05,3.36,0.4,5.16
				c-1.13,3.16-4.42,4.87-7.34,3.82c-0.5-0.18-0.95-0.45-1.36-0.76c-0.52,0.4-1.11,0.72-1.77,0.9c-2.99,0.82-6.13-1.14-7.02-4.37
				C786.14,234.13,787.35,231.25,789.68,230.03z"/>
			<path class="st6" d="M761.74,224.91c1.94-0.53,3.94,0.12,5.35,1.51c0.6-0.55,1.31-0.97,2.13-1.2c2.99-0.82,6.13,1.14,7.02,4.37
				c0.08,0.28,0.11,0.55,0.15,0.83c0.89,0.78,1.58,1.84,1.92,3.1c0.89,3.24-0.81,6.52-3.8,7.34c-0.42,0.11-0.84,0.16-1.26,0.17
				c-0.69,1.29-1.84,2.29-3.31,2.69c-2.27,0.62-4.62-0.36-6.01-2.28c-2.49-0.03-4.83-1.82-5.57-4.53c-0.33-1.2-0.3-2.41,0.02-3.5
				c-0.18-0.37-0.33-0.76-0.44-1.17C757.05,229.02,758.75,225.73,761.74,224.91z"/>
			<path class="st6" d="M784.07,204.15c0.6-2.55,2.6-4.34,4.88-4.69c-0.54-0.67-0.98-1.46-1.22-2.35c-0.89-3.24,0.81-6.52,3.8-7.34
				c0.65-0.18,1.31-0.2,1.96-0.13c0.7-0.92,1.66-1.62,2.82-1.94c2.27-0.62,4.63,0.36,6.02,2.29c2.69-0.24,5.3,1.62,6.09,4.52
				c0.57,2.09,0.05,4.2-1.19,5.65c0.01,0,0.02,0,0.03,0c3.02,0.71,4.84,3.94,4.07,7.2c-0.65,2.77-2.96,4.66-5.48,4.74
				c-0.7,0.92-1.66,1.63-2.83,1.95c-0.64,0.18-1.29,0.2-1.92,0.14c-1.18,2.48-3.8,3.92-6.38,3.31c-2.69-0.64-4.42-3.27-4.22-6.16
				c-0.76,0.17-1.56,0.19-2.36,0C785.12,210.64,783.3,207.41,784.07,204.15z"/>
			<path class="st6" d="M757.24,203.51c0-2.8,1.76-5.14,4.15-5.84c1.02-1.49,2.65-2.46,4.49-2.46c0,0,0,0,0,0
				c1.02-1.52,2.66-2.52,4.53-2.52c2.16,0,4.01,1.33,4.95,3.27c0.95-0.79,2.12-1.28,3.41-1.28c3.1,0,5.61,2.72,5.61,6.07
				c0,0.7-0.13,1.36-0.33,1.99c1.24,1.18,1.81,2.86,1.65,4.56c0.04,0.03,0.1,0.05,0.14,0.09c2.41,1.95,2.64,5.65,0.53,8.25
				c-0.55,0.68-1.21,1.21-1.93,1.6c-0.04,1.32-0.49,2.67-1.41,3.81c-1.84,2.27-4.86,2.96-7.2,1.81c-0.9,0.66-1.98,1.05-3.15,1.05
				c-2.01,0-3.75-1.15-4.75-2.86c-0.1,0.05-0.19,0.1-0.29,0.14c-0.73,0.37-1.53,0.6-2.39,0.6c-3.1,0-5.61-2.72-5.61-6.07
				c0-0.92,0.21-1.79,0.55-2.57c-1.33-0.79-2.25-2.3-2.25-4.06c0-0.71,0.16-1.38,0.42-1.98
				C757.66,206.09,757.24,204.86,757.24,203.51z"/>
		</g>
		<g>
			<path class="st6" d="M769.72,232.81c0,0,13.37,16.98,14.64,18.89c1.27,1.91-0.64,5.31-0.64,5.31L769.72,232.81z"/>
			<path class="st6" d="M786.6,287.43c0,0,0.1-52.18-0.06-56.16c-0.16-3.98,5.57-14.17,5.41-20.85c-0.16-6.68-0.16-10.35-0.16-10.35
				s-0.32,13.69-3.02,18.14c-2.71,4.46-4.3,9.07-4.3,9.07s-7-10.82-7.8-15.44c0,0,1.11,9.55,3.02,12.41s3.18,7.64,3.18,10.03
				c0,2.39,0.16,18.14,0.16,18.14l-0.91,33.8L786.6,287.43z"/>
			<polygon class="st6" points="785.26,246.87 794.02,232.87 786.06,250.85 			"/>
		</g>
	</g>
	<g>
		<path class="st6" d="M1071.84,179.28l-4.17,3.55l2.32,0.77c0,0-1.39,2.78-2.63,5.1s-3.4,1.7-2.47,2.47
			c0.93,0.77,1.55,2.16,1.55,2.16s-1.7,5.25-3.55,5.72s-1.7,1.24-1.24,1.39s2.32,1.55-0.62,2.94s-3.4,2.63-2.63,3.09
			s0.15,3.09,0.15,3.09s-1.08,1.55-1.55,2.01s-5.25,6.34-5.25,6.34l2.78,1.7l-1.39,1.85c0,0-1.39,2.01-2.01,2.63
			c-0.62,0.62-2.94,0-2.94,1.85c0,1.85,1.24,2.78,0.62,4.33c-0.62,1.55-1.55,2.63-2.32,3.4s-2.47,1.24-3.25,3.09
			c-0.77,1.85-2.01,4.33-2.47,5.1c-0.46,0.77-1.7,1.24-0.46,4.02c1.24,2.78-0.62,3.86-0.62,3.86l-4.12,1.96l-1.75,7.47l2.94,0.77
			c0,0,0.31,4.33-0.77,6.34c-1.08,2.01-2.16,3.4-2.16,3.4s-3.55-1.24-2.16,2.01c1.39,3.25,4.79,5.1,4.79,5.1l2.78,5.56l7.26-1.08
			l-0.77,2.01c0,0,2.94,1.85,4.79,0.46c1.85-1.39-0.46-2.63,2.47-1.55s3.71,1.55,4.17,1.7s5.1,0,5.1,0s0.15-2.32,1.24-1.39
			s3.55,1.39,4.02,2.01c0.46,0.62,4.64-0.77,4.64-0.77l3.09-0.46c0,0,3.86,3.09,5.41,3.09s11.13,0.46,11.13,0.46
			s4.95-5.56,4.95-2.01c0,3.55,0.62,3.61,1.85,0.82c1.24-2.78,1.7-2.06,2.63-2.06s3.4-0.46,3.4-0.46l3.71-3.4l3.4,0.93
			c0,0,4.79,2.16,3.55-1.7c-1.24-3.86-1.24-4.33-1.24-4.33s3.71,1.24,3.71-0.93s0-2.94,0-3.55c0-0.62-3.55-5.72-3.55-5.72
			s-2.32-0.46-0.15-1.7c2.16-1.24,2.63-2.63,2.16-3.4s-3.4-2.78-3.4-2.78l-3.25-4.48c0,0,2.16-4.17,2.01-4.95s-2.16-2.01-2.78-3.09
			s-4.17-2.63-4.17-5.87s-3.4-3.25,0-3.25s-0.62-4.79-0.62-4.79s-4.02-1.85-5.1-2.63c-1.08-0.77-2.63-4.48-2.63-4.48
			s2.94-1.24,2.47-2.63c-0.46-1.39-3.4-5.41-3.4-5.41l-4.33-4.64c0,0,3.4,0.31,1.55-2.78s-4.79-6.95-4.79-6.95l-2.63-0.62
			c0,0,1.03-0.82,1.55-1.75c0.52-0.93-1.13-1.03-1.34-1.44s-1.13-2.58-0.82-2.58s0.21-1.65-0.93-1.85s-2.47-2.78-1.34-3.19
			s-0.93-1.24-1.55-1.96c-0.62-0.72-0.72-1.85-1.24-3.3c-0.52-1.44,0.31-1.34-1.03-1.85s-2.27-0.62-2.27-2.47
			c0-1.85,1.13-1.65,0-2.06s-4.12,0.31-4.22,1.03S1071.84,179.28,1071.84,179.28z"/>
		<g>
			<path class="st6" d="M1074.39,193.39c0,0-3.07,47.29-2.14,56.56c0.93,9.27,2.37,19.78,2.06,33.38s-3.4,35.24-3.4,35.24l8.55-0.62
				c0,0,1.24-36.47-0.82-45.74s-3.09-19.78-3.71-28.44S1074.39,193.39,1074.39,193.39z"/>
			<path class="st6" d="M1077.3,297.25c0,0-0.31-1.75,4.64-6.18c4.95-4.43,8.45-18.54,8.45-18.54s0.72,9.58-2.58,14.73
				s-9.99,12.57-9.99,12.57L1077.3,297.25z"/>
			<path class="st6" d="M1075.6,282c0,0-4.48,1.08-8.65-6.18c-4.17-7.26-4.79-14.06-4.79-14.06s-1.39,8.04,3.25,16.07
				c4.64,8.04,9.12,9.74,9.12,9.74L1075.6,282z"/>
		</g>
	</g>
	<g>
		<g>
			<g>
				<path class="st6" d="M60.59,209.59c-0.07-4.46,2.29-8.5,6.12-10.26c0.58-4.27,3.39-7.91,7.53-9.05
					c5.67-1.56,11.64,2.15,13.32,8.29c0.64,2.33,0.56,4.68-0.08,6.78c0.17,0.42,0.36,0.83,0.48,1.28c0.67,2.45,0.53,4.91-0.21,7.09
					c1.58,2.81,2,6.37,0.77,9.8c-2.15,5.99-8.38,9.24-13.92,7.25c-0.96-0.34-1.79-0.86-2.57-1.44c-0.99,0.76-2.11,1.36-3.37,1.71
					c-5.67,1.56-11.64-2.15-13.32-8.29C53.87,217.37,56.18,211.91,60.59,209.59z"/>
				<path class="st6" d="M9.01,195.93c3.68-1.01,7.47,0.22,10.15,2.87c1.14-1.04,2.49-1.84,4.05-2.27
					c5.67-1.56,11.64,2.15,13.32,8.29c0.14,0.53,0.21,1.05,0.28,1.58c1.68,1.49,2.99,3.49,3.65,5.87
					c1.69,6.14-1.54,12.38-7.22,13.94c-0.79,0.22-1.59,0.31-2.38,0.33c-1.32,2.45-3.5,4.34-6.27,5.11
					c-4.3,1.18-8.77-0.68-11.41-4.32c-4.73-0.06-9.16-3.46-10.57-8.6c-0.63-2.28-0.57-4.58,0.04-6.65
					c-0.34-0.69-0.63-1.43-0.84-2.21C0.11,203.72,3.34,197.49,9.01,195.93z"/>
				<path class="st6" d="M-1.12,168.86c1.14-4.83,4.94-8.24,9.26-8.89c-1.03-1.27-1.85-2.76-2.32-4.47
					c-1.69-6.14,1.54-12.38,7.22-13.94c1.24-0.34,2.49-0.39,3.71-0.25c1.32-1.74,3.14-3.07,5.35-3.67
					c4.31-1.18,8.78,0.69,11.43,4.35c5.1-0.45,10.05,3.07,11.56,8.58c1.09,3.97,0.1,7.96-2.25,10.72c0.02,0,0.04,0,0.06,0.01
					c5.73,1.35,9.18,7.47,7.72,13.66c-1.24,5.25-5.61,8.83-10.4,9c-1.32,1.75-3.15,3.09-5.37,3.7c-1.22,0.34-2.45,0.38-3.65,0.26
					c-2.24,4.71-7.2,7.45-12.11,6.29c-5.11-1.21-8.39-6.21-8-11.68c-1.45,0.33-2.97,0.36-4.48,0
					C0.88,181.17-2.58,175.06-1.12,168.86z"/>
				<path class="st6" d="M43.8,143.92c0-5.32,3.34-9.75,7.87-11.08c1.94-2.82,5.02-4.68,8.52-4.68c0,0,0,0,0,0
					c1.94-2.89,5.06-4.78,8.6-4.78c4.1,0,7.61,2.53,9.39,6.2c1.8-1.5,4.02-2.42,6.46-2.42c5.88,0,10.65,5.16,10.65,11.53
					c0,1.33-0.25,2.59-0.63,3.78c2.36,2.24,3.44,5.42,3.13,8.65c0.08,0.06,0.18,0.1,0.26,0.17c4.57,3.71,5.01,10.72,1,15.66
					c-1.05,1.29-2.3,2.3-3.66,3.04c-0.07,2.51-0.93,5.07-2.68,7.23c-3.5,4.31-9.23,5.61-13.66,3.42c-1.71,1.25-3.76,1.99-5.98,1.99
					c-3.81,0-7.12-2.18-9.01-5.43c-0.18,0.09-0.36,0.19-0.55,0.27c-1.38,0.71-2.91,1.14-4.54,1.14c-5.88,0-10.65-5.16-10.65-11.53
					c0-1.75,0.39-3.4,1.04-4.88c-2.53-1.49-4.26-4.36-4.26-7.7c0-1.35,0.3-2.61,0.8-3.75C44.6,148.83,43.8,146.49,43.8,143.92z"/>
			</g>
			<g>
				<path class="st6" d="M24.15,210.92c0,0,25.37,32.21,27.78,35.84c2.42,3.62-1.21,10.07-1.21,10.07L24.15,210.92z"/>
				<path class="st6" d="M56.18,314.55c0,0,0.18-99.01-0.12-106.56c-0.3-7.55,10.57-26.88,10.27-39.56
					c-0.3-12.68-0.3-19.63-0.3-19.63s-0.6,25.97-5.74,34.43c-5.13,8.46-8.15,17.21-8.15,17.21s-13.29-20.54-14.8-29.29
					c0,0,2.11,18.12,5.74,23.56c3.62,5.44,6.04,14.5,6.04,19.03c0,4.53,0.3,34.43,0.3,34.43l-1.72,64.13L56.18,314.55z"/>
				<polygon class="st6" points="53.64,237.59 70.25,211.02 55.15,245.14 				"/>
			</g>
		</g>
		<g>
			<g>
				<path class="st6" d="M209.88,279.07c-0.04-2.37,1.22-4.52,3.26-5.46c0.31-2.27,1.8-4.21,4-4.81c3.02-0.83,6.19,1.15,7.09,4.41
					c0.34,1.24,0.3,2.49-0.04,3.6c0.09,0.22,0.19,0.44,0.26,0.68c0.36,1.31,0.28,2.61-0.11,3.77c0.84,1.5,1.06,3.39,0.41,5.21
					c-1.14,3.19-4.46,4.91-7.4,3.86c-0.51-0.18-0.95-0.46-1.37-0.77c-0.53,0.4-1.12,0.72-1.79,0.91c-3.02,0.83-6.19-1.15-7.09-4.41
					C206.31,283.2,207.53,280.3,209.88,279.07z"/>
				<path class="st6" d="M182.45,271.8c1.96-0.54,3.97,0.12,5.4,1.53c0.61-0.55,1.32-0.98,2.15-1.21c3.02-0.83,6.19,1.15,7.09,4.41
					c0.08,0.28,0.11,0.56,0.15,0.84c0.89,0.79,1.59,1.86,1.94,3.12c0.9,3.26-0.82,6.58-3.84,7.41c-0.42,0.12-0.85,0.16-1.27,0.17
					c-0.7,1.3-1.86,2.31-3.34,2.72c-2.29,0.63-4.66-0.36-6.07-2.3c-2.52-0.03-4.87-1.84-5.62-4.57c-0.33-1.21-0.3-2.44,0.02-3.53
					c-0.18-0.37-0.33-0.76-0.45-1.18C177.71,275.95,179.43,272.63,182.45,271.8z"/>
				<path class="st6" d="M201.91,249.58c0.61-2.57,2.63-4.38,4.93-4.73c-0.55-0.68-0.99-1.47-1.23-2.38
					c-0.9-3.26,0.82-6.58,3.84-7.41c0.66-0.18,1.33-0.21,1.97-0.14c0.7-0.93,1.67-1.63,2.84-1.95c2.29-0.63,4.67,0.37,6.08,2.31
					c2.71-0.24,5.34,1.63,6.15,4.56c0.58,2.11,0.05,4.23-1.2,5.7c0.01,0,0.02,0,0.03,0c3.04,0.72,4.88,3.97,4.11,7.27
					c-0.66,2.79-2.99,4.7-5.53,4.78c-0.7,0.93-1.67,1.64-2.85,1.97c-0.65,0.18-1.3,0.2-1.94,0.14c-1.19,2.5-3.83,3.96-6.44,3.34
					c-2.72-0.64-4.46-3.3-4.25-6.21c-0.77,0.17-1.58,0.19-2.39,0C202.98,256.13,201.14,252.87,201.91,249.58z"/>
				<path class="st6" d="M175.45,248.39c0-2.83,1.78-5.18,4.18-5.89c1.03-1.5,2.67-2.49,4.53-2.49c0,0,0,0,0,0
					c1.03-1.53,2.69-2.54,4.58-2.54c2.18,0,4.05,1.35,4.99,3.3c0.96-0.8,2.14-1.29,3.44-1.29c3.13,0,5.66,2.74,5.66,6.13
					c0,0.71-0.13,1.38-0.34,2.01c1.26,1.19,1.83,2.88,1.66,4.6c0.05,0.03,0.1,0.05,0.14,0.09c2.43,1.97,2.67,5.7,0.53,8.33
					c-0.56,0.69-1.22,1.22-1.95,1.61c-0.04,1.33-0.49,2.69-1.43,3.85c-1.86,2.29-4.91,2.98-7.27,1.82c-0.91,0.67-2,1.06-3.18,1.06
					c-2.03,0-3.79-1.16-4.79-2.89c-0.1,0.05-0.19,0.1-0.29,0.14c-0.73,0.38-1.55,0.6-2.41,0.6c-3.13,0-5.66-2.74-5.66-6.13
					c0-0.93,0.21-1.81,0.55-2.6c-1.34-0.79-2.27-2.32-2.27-4.09c0-0.72,0.16-1.39,0.43-1.99C175.87,251,175.45,249.76,175.45,248.39
					z"/>
			</g>
			<g>
				<path class="st6" d="M190.5,279.77c0,0,13.49,17.13,14.78,19.06c1.28,1.93-0.64,5.35-0.64,5.35L190.5,279.77z"/>
				<path class="st6" d="M207.53,334.89c0,0,0.1-52.65-0.06-56.67c-0.16-4.02,5.62-14.29,5.46-21.04
					c-0.16-6.75-0.16-10.44-0.16-10.44s-0.32,13.81-3.05,18.31c-2.73,4.5-4.34,9.15-4.34,9.15s-7.07-10.92-7.87-15.58
					c0,0,1.12,9.64,3.05,12.53c1.93,2.89,3.21,7.71,3.21,10.12s0.16,18.31,0.16,18.31l-0.91,34.11L207.53,334.89z"/>
				<polygon class="st6" points="206.18,293.96 215.02,279.82 206.99,297.97 				"/>
			</g>
		</g>
		<g>
			<path class="st6" d="M119.14,170.26l-4.17,3.55l2.32,0.77c0,0-1.39,2.78-2.63,5.1c-1.24,2.32-3.4,1.7-2.47,2.47
				c0.93,0.77,1.55,2.16,1.55,2.16s-1.7,5.25-3.55,5.72s-1.7,1.24-1.24,1.39s2.32,1.55-0.62,2.94c-2.94,1.39-3.4,2.63-2.63,3.09
				c0.77,0.46,0.15,3.09,0.15,3.09s-1.08,1.55-1.55,2.01c-0.46,0.46-5.25,6.34-5.25,6.34l2.78,1.7l-1.39,1.85
				c0,0-1.39,2.01-2.01,2.63c-0.62,0.62-2.94,0-2.94,1.85c0,1.85,1.24,2.78,0.62,4.33c-0.62,1.55-1.55,2.63-2.32,3.4
				c-0.77,0.77-2.47,1.24-3.25,3.09c-0.77,1.85-2.01,4.33-2.47,5.1s-1.7,1.24-0.46,4.02c1.24,2.78-0.62,3.86-0.62,3.86l-4.12,1.96
				l-1.75,7.47l2.94,0.77c0,0,0.31,4.33-0.77,6.34c-1.08,2.01-2.16,3.4-2.16,3.4s-3.55-1.24-2.16,2.01c1.39,3.25,4.79,5.1,4.79,5.1
				l2.78,5.56l7.26-1.08l-0.77,2.01c0,0,2.94,1.85,4.79,0.46s-0.46-2.63,2.47-1.55c2.94,1.08,3.71,1.55,4.17,1.7s5.1,0,5.1,0
				s0.15-2.32,1.24-1.39c1.08,0.93,3.55,1.39,4.02,2.01c0.46,0.62,4.64-0.77,4.64-0.77l3.09-0.46c0,0,3.86,3.09,5.41,3.09
				s11.13,0.46,11.13,0.46s4.95-5.56,4.95-2.01c0,3.55,0.62,3.61,1.85,0.82c1.24-2.78,1.7-2.06,2.63-2.06s3.4-0.46,3.4-0.46
				l3.71-3.4l3.4,0.93c0,0,4.79,2.16,3.55-1.7c-1.24-3.86-1.24-4.33-1.24-4.33s3.71,1.24,3.71-0.93c0-2.16,0-2.94,0-3.55
				s-3.55-5.72-3.55-5.72s-2.32-0.46-0.15-1.7c2.16-1.24,2.63-2.63,2.16-3.4c-0.46-0.77-3.4-2.78-3.4-2.78l-3.25-4.48
				c0,0,2.16-4.17,2.01-4.95c-0.15-0.77-2.16-2.01-2.78-3.09c-0.62-1.08-4.17-2.63-4.17-5.87s-3.4-3.25,0-3.25s-0.62-4.79-0.62-4.79
				s-4.02-1.85-5.1-2.63c-1.08-0.77-2.63-4.48-2.63-4.48s2.94-1.24,2.47-2.63s-3.4-5.41-3.4-5.41l-4.33-4.64c0,0,3.4,0.31,1.55-2.78
				c-1.85-3.09-4.79-6.95-4.79-6.95l-2.63-0.62c0,0,1.03-0.82,1.55-1.75s-1.13-1.03-1.34-1.44c-0.21-0.41-1.13-2.58-0.82-2.58
				s0.21-1.65-0.93-1.85c-1.13-0.21-2.47-2.78-1.34-3.19c1.13-0.41-0.93-1.24-1.55-1.96c-0.62-0.72-0.72-1.85-1.24-3.3
				c-0.52-1.44,0.31-1.34-1.03-1.85c-1.34-0.52-2.27-0.62-2.27-2.47c0-1.85,1.13-1.65,0-2.06c-1.13-0.41-4.12,0.31-4.22,1.03
				S119.14,170.26,119.14,170.26z"/>
			<g>
				<path class="st6" d="M121.69,184.37c0,0-3.07,47.29-2.14,56.56c0.93,9.27,2.37,19.78,2.06,33.38s-3.4,35.24-3.4,35.24l8.55-0.62
					c0,0,1.24-36.47-0.82-45.74c-2.06-9.27-3.09-19.78-3.71-28.44C121.61,226.1,121.69,184.37,121.69,184.37z"/>
				<path class="st6" d="M124.6,288.23c0,0-0.31-1.75,4.64-6.18c4.95-4.43,8.45-18.54,8.45-18.54s0.72,9.58-2.58,14.73
					c-3.3,5.15-9.99,12.57-9.99,12.57L124.6,288.23z"/>
				<path class="st6" d="M122.9,272.98c0,0-4.48,1.08-8.65-6.18s-4.79-14.06-4.79-14.06s-1.39,8.04,3.25,16.07
					c4.64,8.04,9.12,9.74,9.12,9.74L122.9,272.98z"/>
			</g>
		</g>
	</g>
	<rect y="319.47" class="st7" width="1146" height="97.53"/>
	<g class="st8">
		<polygon class="st9" points="0,370.37 143.25,369.88 286.5,369.6 573,369.37 859.5,369.6 1002.75,369.88 1146,370.37 
			1002.75,370.86 859.5,371.14 573,371.37 286.5,371.13 143.25,370.86 		"/>
	</g>
</g>
</svg>
